<?xml version="1.0" encoding="UTF-8" standalone="no"?>
<svg width="19px" height="15px" viewBox="0 0 19 15" version="1.1" xmlns="http://www.w3.org/2000/svg" xmlns:xlink="http://www.w3.org/1999/xlink">
    <!-- Generator: Sketch 41 (35326) - http://www.bohemiancoding.com/sketch -->
    <title>Attach_file</title>
    <desc>Created with Sketch.</desc>
    <defs></defs>
    <g id="Serviсes-desktop" stroke="none" stroke-width="1" fill="none" fill-rule="evenodd">
        <g id="Services_desktop" transform="translate(-427.000000, -2742.000000)" fill="#00B5FF">
            <g id="Футер" transform="translate(248.000000, 2147.000000)">
                <g id="Прикрепить-файл" transform="translate(0.000000, 585.000000)">
                    <path d="M197.817064,17.4381464 C197.671641,17.1286067 197.449313,16.8913424 197.151612,16.7267072 C196.853527,16.5617537 196.52569,16.4793654 196.168066,16.4793654 L194.260445,16.4793654 L194.260445,14.8640236 C194.260445,14.2448381 194.041806,13.7131328 193.604736,13.2689076 C193.167458,12.8247177 192.644158,12.6026582 192.03494,12.6026582 L186.630205,12.6026582 L186.630205,12.279611 C186.630205,11.6604256 186.411566,11.1287202 185.974531,10.6846365 C185.537322,10.2404467 185.014092,10.0182457 184.404734,10.0182457 L181.225471,10.0182457 C180.616114,10.0182457 180.092848,10.2404113 179.655674,10.6846365 C179.218535,11.1287556 179,11.6604609 179,12.2796464 L179,21.9713437 C179,22.5904231 179.218535,23.1221284 179.655674,23.5662122 C180.092848,24.0105081 180.616114,24.2327091 181.225471,24.2327091 L192.035148,24.2327091 C192.47876,24.2327091 192.942346,24.1165521 193.426081,23.8842382 C193.909606,23.6521718 194.293538,23.3575893 194.578364,23.000915 L197.509341,19.3362959 C197.813967,18.9460298 197.966141,18.5423623 197.966141,18.1248691 C197.96628,17.882513 197.916588,17.6539119 197.817064,17.4381464 Z M180.271782,12.2797878 C180.271782,12.0106644 180.364451,11.7817804 180.549927,11.5933127 C180.735264,11.404951 180.960515,11.3106818 181.225505,11.3106818 L184.404874,11.3106818 C184.669864,11.3106818 184.894976,11.4048449 185.080452,11.5933127 C185.265824,11.7817804 185.358597,12.0106644 185.358597,12.2797878 L185.358597,12.9259529 C185.358597,13.1952531 185.451405,13.4240664 185.636777,13.612428 C185.822148,13.8007897 186.04733,13.8950943 186.312286,13.8950943 L192.034974,13.8950943 C192.299826,13.8950943 192.525251,13.9893635 192.710692,14.1777252 C192.89596,14.3660515 192.988733,14.5949355 192.988733,14.8642004 L192.988733,16.4795068 L185.358562,16.4795068 C184.908234,16.4795068 184.44444,16.5956284 183.96756,16.8278362 C183.490612,17.060044 183.106505,17.3544498 182.815033,17.7113362 L180.271782,20.8912785 L180.271782,12.2797878 L180.271782,12.2797878 Z M196.515668,18.5187773 L193.594714,22.183361 C193.429317,22.3919485 193.194114,22.5703033 192.889278,22.718178 C192.584652,22.8663002 192.299826,22.9403437 192.03494,22.9403437 L181.225471,22.9403437 C180.874423,22.9403437 180.698934,22.8224895 180.698934,22.5870285 C180.698934,22.4793226 180.758544,22.3447432 180.877799,22.1829721 L183.798718,18.5185298 C183.970936,18.3098009 184.207601,18.1332494 184.50906,17.9885217 C184.810346,17.843794 185.093537,17.7714125 185.358527,17.7714125 L196.168031,17.7714125 C196.519079,17.7714125 196.694498,17.8892667 196.694498,18.124763 C196.694533,18.2395056 196.635132,18.3706551 196.515668,18.5187773 Z" id="Attach_file"></path>
                </g>
            </g>
        </g>
    </g>
</svg>