<?xml version="1.0" encoding="UTF-8" standalone="no"?>
<svg width="48px" height="43px" viewBox="0 0 48 43" version="1.1" xmlns="http://www.w3.org/2000/svg" xmlns:xlink="http://www.w3.org/1999/xlink">
    <!-- Generator: Sketch 41 (35326) - http://www.bohemiancoding.com/sketch -->
    <title>Basket_icon</title>
    <desc>Created with Sketch.</desc>
    <defs></defs>
    <g id="ServiÑes-desktop" stroke="none" stroke-width="1" fill="none" fill-rule="evenodd">
        <g id="Services_desktop" transform="translate(-326.000000, -424.000000)">
            <g id="header" transform="translate(1.000000, 35.000000)">
                <g id="2" transform="translate(325.000000, 385.000000)">
                    <g id="Basket_icon">
                        <rect id="Rectangle-2" x="0" y="0" width="48" height="48"></rect>
                        <g id="Group-6" transform="translate(0.000000, 4.000000)" fill="#00B5FF">
                            <path d="M47.0709113,7.69602449 C46.8125668,7.35502261 46.4137703,7.15528498 45.9913225,7.15528498 L11.2805574,7.15528498 L9.76451195,1.20492281 C9.60823172,0.591230806 9.06534444,0.162982935 8.44386221,0.162982935 L1.36449553,0.162982935 C0.610930132,0.162982935 0,0.786327691 0,1.55520618 C0,2.32408468 0.610930132,2.94742943 1.36449553,2.94742943 L7.38865233,2.94742943 L8.90469783,8.89779159 C8.90469783,8.89797722 8.90469783,8.89797722 8.90487976,8.89816285 L14.2502455,29.8685719 C14.4065257,30.4820783 14.949413,30.9103262 15.5707133,30.9103262 L40.645047,30.9103262 C41.2663473,30.9103262 41.8092346,30.4820783 41.9655149,29.8685719 L47.3116083,8.89779159 C47.4182209,8.48086714 47.3292558,8.03684074 47.0709113,7.69602449 Z M21.4456853,28.1260653 L16.6259232,28.1260653 L15.5539755,23.9211799 L21.4456853,23.9211799 L21.4456853,28.1260653 L21.4456853,28.1260653 Z M21.4456853,21.1365477 L14.8442559,21.1365477 L13.7717624,16.9288778 L21.4456853,16.9288778 L21.4456853,21.1365477 L21.4456853,21.1365477 Z M21.4456853,14.1444313 L13.0618609,14.1444313 L11.9900951,9.93973147 L21.4456853,9.93973147 L21.4456853,14.1444313 Z M32.0418118,28.1260653 L24.1746763,28.1260653 L24.1746763,23.9211799 L32.0418118,23.9211799 L32.0418118,28.1260653 Z M32.0418118,21.1365477 L24.1746763,21.1365477 L24.1746763,16.9288778 L32.0418118,16.9288778 L32.0418118,21.1365477 Z M32.0418118,14.1444313 L24.1746763,14.1444313 L24.1746763,9.93973147 L32.0418118,9.93973147 L32.0418118,14.1444313 Z M39.590201,28.1260653 L34.7708028,28.1260653 L34.7708028,23.9211799 L40.6621487,23.9211799 L39.590201,28.1260653 Z M41.3720503,21.1365477 L34.7708028,21.1365477 L34.7708028,16.9288778 L42.4447257,16.9288778 L41.3720503,21.1365477 Z M43.1546272,14.1444313 L34.7709848,14.1444313 L34.7709848,9.93973147 L44.2267568,9.93973147 L43.1546272,14.1444313 Z" id="Shape"></path>
                            <path d="M19.190629,32.0434103 C16.4423531,32.0434103 14.2063997,34.3248001 14.2063997,37.1287377 C14.2063997,39.9332322 16.4423531,42.2149933 19.190629,42.2149933 C21.938723,42.2149933 24.1746763,39.9332322 24.1746763,37.1287377 C24.1746763,34.3248001 21.9389049,32.0434103 19.190629,32.0434103 Z M19.190629,39.4305468 C17.9471187,39.4305468 16.9353908,38.3978884 16.9353908,37.1287377 C16.9353908,35.8599583 17.9471187,34.8278568 19.190629,34.8278568 C20.4339573,34.8278568 21.4456853,35.8601439 21.4456853,37.1287377 C21.4456853,38.3980741 20.4341393,39.4305468 19.190629,39.4305468 Z" id="Shape"></path>
                            <path d="M37.0254952,32.0434103 C34.2775832,32.0434103 32.0419937,34.3248001 32.0419937,37.1287377 C32.0419937,39.9332322 34.2775832,42.2149933 37.0254952,42.2149933 C39.7739531,42.2149933 42.0097245,39.9332322 42.0097245,37.1287377 C42.0097245,34.3248001 39.7737712,32.0434103 37.0254952,32.0434103 Z M37.0254952,39.4305468 C35.7823488,39.4305468 34.7709848,38.3978884 34.7709848,37.1287377 C34.7709848,35.8599583 35.7823488,34.8278568 37.0254952,34.8278568 C38.2691874,34.8278568 39.2807335,35.8601439 39.2807335,37.1287377 C39.2807335,38.3980741 38.2690055,39.4305468 37.0254952,39.4305468 Z" id="Shape"></path>
                        </g>
                    </g>
                </g>
            </g>
        </g>
    </g>
</svg>