<?xml version="1.0" encoding="UTF-8" standalone="no"?>
<svg width="18px" height="18px" viewBox="0 0 18 18" version="1.1" xmlns="http://www.w3.org/2000/svg" xmlns:xlink="http://www.w3.org/1999/xlink">
    <!-- Generator: Sketch 41 (35326) - http://www.bohemiancoding.com/sketch -->
    <title>Check_icon_blue</title>
    <desc>Created with Sketch.</desc>
    <defs></defs>
    <g id="Serviсes" stroke="none" stroke-width="1" fill="none" fill-rule="evenodd">
        <g id="Услуги" transform="translate(-395.000000, -1774.000000)" fill="#00B5FF">
            <g id="Additional_services" transform="translate(395.000000, 1655.000000)">
                <g id="Group-30" transform="translate(0.000000, 107.000000)">
                    <g id="icons" transform="translate(0.000000, 12.000000)">
                        <g id="Check_icon_blue">
                            <path d="M8.90497059,0 C4.01320588,0 0.0108529412,4.00738235 0.0108529412,8.90497059 C0.0108529412,13.8025588 4.01320588,17.8099412 8.90497059,17.8099412 C13.7967353,17.8099412 17.7990882,13.8025588 17.7990882,8.90497059 C17.7990882,4.00738235 13.7967353,0 8.90497059,0 Z M8.90497059,15.5837647 C5.23614706,15.5837647 2.23438235,12.5782941 2.23438235,8.90497059 C2.23438235,5.23164706 5.23614706,2.22617647 8.90497059,2.22617647 C12.5737941,2.22617647 15.5755588,5.23164706 15.5755588,8.90497059 C15.5755588,12.5782941 12.5737941,15.5837647 8.90497059,15.5837647 Z" id="Shape"></path>
                            <path d="M11.4620294,5.8995 L7.79320588,9.57282353 L6.23673529,8.0145 C5.79202941,7.56926471 5.12497059,7.56926471 4.68026471,8.0145 C4.23555882,8.45973529 4.23555882,9.12758824 4.68026471,9.57282353 L7.01497059,11.9104412 C7.23732353,12.1330588 7.45967647,12.2445 7.79320588,12.2445 C8.12673529,12.2445 8.34908824,12.1330588 8.57144118,11.9104412 L13.0185,7.45782353 C13.4632059,7.01258824 13.4632059,6.34473529 13.0185,5.8995 C12.5737941,5.45426471 11.9067353,5.45426471 11.4620294,5.8995 Z" id="Shape"></path>
                        </g>
                    </g>
                </g>
            </g>
        </g>
    </g>
</svg>