<?xml version="1.0" encoding="UTF-8" standalone="no"?>
<svg width="18px" height="19px" viewBox="0 0 18 19" version="1.1" xmlns="http://www.w3.org/2000/svg" xmlns:xlink="http://www.w3.org/1999/xlink">
    <!-- Generator: Sketch 41 (35326) - http://www.bohemiancoding.com/sketch -->
    <title>checked-data</title>
    <desc>Created with Sketch.</desc>
    <defs></defs>
    <g id="Home" stroke="none" stroke-width="1" fill="none" fill-rule="evenodd">
        <g id="JAWS" transform="translate(-41.000000, -3060.000000)" fill="#7B8188">
            <g id="4_Price" transform="translate(0.000000, 2945.000000)">
                <g id="Group-20" transform="translate(41.000000, 115.000000)">
                    <g id="1">
                        <g id="Group-7">
                            <g id="Group-4">
                                <g id="checked-data">
                                    <path d="M15.5541783,8.39899396 C15.6942803,8.94617103 15.7762548,9.51674447 15.7762548,10.1069296 C15.7762548,13.9232918 12.6731083,17.0273642 8.85821656,17.0273642 C5.04340127,17.0273642 1.93952866,13.92333 1.93952866,10.1069296 C1.93952866,6.29072032 5.04340127,3.18584507 8.85821656,3.18584507 C9.83052229,3.18584507 10.7550191,3.38991348 11.5954013,3.75347485 L12.6238854,2.09967203 C11.4793376,1.55872636 10.2059236,1.24688934 8.85821656,1.24688934 C3.97440764,1.24688934 0.000993630574,5.22163581 0.000993630574,10.1069296 C0.000993630574,14.991841 3.97440764,18.9665111 8.85821656,18.9665111 C13.7412994,18.9665111 17.7146369,14.991841 17.7146369,10.1069296 C17.7146369,8.74917505 17.3985478,7.46673239 16.8509809,6.3154165 L15.5541783,8.39899396 L15.5541783,8.39899396 Z" id="Shape"></path>
                                    <path d="M17.2035287,0.244094567 C16.4464204,-0.226891348 15.4500764,0.00405231388 14.9786752,0.761452716 L8.55592357,11.0859457 L6.40436943,8.01654728 C5.8926879,7.28621328 4.88430573,7.10940241 4.15421656,7.62133199 C3.42428025,8.13391147 3.24687898,9.14117907 3.75921019,9.87216298 L7.31342675,14.9426398 C7.61648408,15.3742877 8.11043312,15.6306157 8.63606369,15.6306157 C8.65054777,15.6306157 8.66575796,15.6306157 8.68028025,15.6299276 C9.2222293,15.6147887 9.72087898,15.3290241 10.0071592,14.8686278 L17.7210955,2.46961771 C18.1929936,1.71137626 17.9607134,0.715386318 17.2035287,0.244094567 L17.2035287,0.244094567 Z" id="Shape"></path>
                                </g>
                            </g>
                        </g>
                    </g>
                </g>
            </g>
        </g>
    </g>
</svg>