<?xml version="1.0" encoding="UTF-8" standalone="no"?>
<svg width="31px" height="20px" viewBox="0 0 31 20" version="1.1" xmlns="http://www.w3.org/2000/svg" xmlns:xlink="http://www.w3.org/1999/xlink">
    <!-- Generator: Sketch 41 (35326) - http://www.bohemiancoding.com/sketch -->
    <title>Shape</title>
    <desc>Created with Sketch.</desc>
    <defs></defs>
    <g id="Сontacts" stroke="none" stroke-width="1" fill="none" fill-rule="evenodd">
        <g id="Contacts" transform="translate(-609.000000, -292.000000)" fill="#00B5FF">
            <g id="Header">
                <g id="Group-5" transform="translate(609.000000, 222.000000)">
                    <g id="Group-4" transform="translate(0.000000, 68.000000)">
                        <path d="M29.2962134,2.18565473 L0.516201351,2.18565473 L0.516201351,21.1811617 L30.5162014,21.1811617 L30.5162014,2.18565473 L29.2962134,2.18565473 L29.2962134,2.18565473 Z M28.095358,3.37259556 L16.5054721,14.8389338 C15.9765105,15.3622567 15.0547668,15.3622567 14.5258052,14.8389338 L2.93366834,3.37259556 L28.0942326,3.37259556 L28.095358,3.37259556 Z M1.71593124,3.84581305 L9.50742284,11.5531342 L1.71593124,19.2615689 L1.71593124,3.8446996 L1.71593124,3.84581305 Z M2.67368935,19.9942209 L10.3571377,12.3937912 L13.6783412,15.6784773 C14.1690375,16.1639428 14.8217986,16.432285 15.5162014,16.432285 C16.2106041,16.432285 16.8633652,16.1639428 17.3540615,15.6784773 L20.675265,12.3926777 L28.3575879,19.9931074 L2.6725639,19.9931074 L2.67368935,19.9942209 Z M29.3164715,19.2626823 L21.5249799,11.5531342 L29.3164715,3.84358615 L29.3164715,19.2626823 L29.3164715,19.2626823 Z" id="Shape"></path>
                    </g>
                </g>
            </g>
        </g>
    </g>
</svg>