<?xml version="1.0" encoding="UTF-8" standalone="no"?>
<svg width="11px" height="12px" viewBox="0 0 11 12" version="1.1" xmlns="http://www.w3.org/2000/svg" xmlns:xlink="http://www.w3.org/1999/xlink">
    <!-- Generator: Sketch 41 (35326) - http://www.bohemiancoding.com/sketch -->
    <title>Down_icon</title>
    <desc>Created with Sketch.</desc>
    <defs></defs>
    <g id="Home" stroke="none" stroke-width="1" fill="none" fill-rule="evenodd">
        <g id="JAWS" transform="translate(-154.000000, -426.000000)" fill="#00B5FF">
            <g id="1_Header">
                <g id="Нашы-работы" transform="translate(26.915888, 393.000000)">
                    <g id="Down_icon" transform="translate(127.000000, 33.000000)">
                        <path d="M2.42920929,6.30909091 C2.01162307,5.8969697 1.33202198,5.8969697 0.914435766,6.30909091 C0.496849553,6.72121212 0.496849553,7.39191919 0.914435766,7.8040404 L4.82828302,11.6666667 C5.24586924,12.0787879 5.92547033,12.0787879 6.34305654,11.6666667 L10.2569038,7.8040404 C10.67449,7.39191919 10.67449,6.72121212 10.2569038,6.30909091 C9.83931758,5.8969697 9.15971649,5.8969697 8.74213028,6.30909091 L5.58566978,9.42424242 L2.42920929,6.30909091 L2.42920929,6.30909091 Z" id="Down-Copy"></path>
                        <path d="M2.42920929,0.309090909 C2.01162307,-0.103030303 1.33202198,-0.103030303 0.914435766,0.309090909 C0.496849553,0.721212121 0.496849553,1.39191919 0.914435766,1.8040404 L4.82828302,5.66666667 C5.24586924,6.07878788 5.92547033,6.07878788 6.34305654,5.66666667 L10.2569038,1.8040404 C10.67449,1.39191919 10.67449,0.721212121 10.2569038,0.309090909 C9.83931758,-0.103030303 9.15971649,-0.103030303 8.74213028,0.309090909 L5.58566978,3.42424242 L2.42920929,0.309090909 L2.42920929,0.309090909 Z" id="Down"></path>
                    </g>
                </g>
            </g>
        </g>
    </g>
</svg>