<?xml version="1.0" encoding="UTF-8" standalone="no"?>
<svg width="38px" height="38px" viewBox="0 0 38 38" version="1.1" xmlns="http://www.w3.org/2000/svg" xmlns:xlink="http://www.w3.org/1999/xlink">
    <!-- Generator: Sketch 41 (35326) - http://www.bohemiancoding.com/sketch -->
    <title>Email</title>
    <desc>Created with Sketch.</desc>
    <defs></defs>
    <g id="Welcome_desktop" stroke="none" stroke-width="1" fill="none" fill-rule="evenodd">
        <g id="JAWS_mobile" transform="translate(-219.000000, -20.000000)">
            <g id="1_Header">
                <g id="Email" transform="translate(219.314642, 20.000000)">
                    <path d="M18.6818536,37.4804688 C28.9995564,37.4804688 37.3637072,29.09018 37.3637072,18.7402344 C37.3637072,8.39028872 28.9995564,0 18.6818536,0 C8.36415075,0 0,8.39028872 0,18.7402344 C0,29.09018 8.36415075,37.4804688 18.6818536,37.4804688 Z" id="Oval" fill-opacity="0.6" fill="#000000" opacity="0.300000012"></path>
                    <path d="M27.1520028,11 L10.7296171,11 C10.3089992,11 9.96884735,11.3731281 9.96884735,11.8256451 L9.96884735,25.5519945 C9.96884735,26.008481 10.3126568,26.3776396 10.7296171,26.3776396 L27.1117698,26.3776396 C27.5323877,26.3776396 27.8725396,26.0045116 27.9127726,25.5519945 L27.9127726,11.8296145 C27.9127726,11.3731281 27.5689632,11 27.1520028,11 L27.1520028,11 Z M25.4987916,12.6552596 L18.9225222,19.0222534 L12.3462529,12.6552596 L25.4987916,12.6552596 L25.4987916,12.6552596 Z M11.4538114,24.7303189 L11.4538114,13.9850245 L18.4250959,20.677513 C18.6116307,20.8799548 19.0761392,21.0030077 19.4162911,20.7172075 L26.3875755,13.9850245 L26.3875755,24.7263495 L11.4538114,24.7263495 L11.4538114,24.7303189 L11.4538114,24.7303189 Z" id="Shape" fill="#00B5FF"></path>
                </g>
            </g>
        </g>
    </g>
</svg>