<?xml version="1.0" encoding="UTF-8" standalone="no"?>
<svg width="56px" height="49px" viewBox="0 0 56 49" version="1.1" xmlns="http://www.w3.org/2000/svg" xmlns:xlink="http://www.w3.org/1999/xlink">
    <!-- Generator: Sketch 41 (35326) - http://www.bohemiancoding.com/sketch -->
    <title>Fast_icon</title>
    <desc>Created with Sketch.</desc>
    <defs></defs>
    <g id="Contextual_advertising_desktop" stroke="none" stroke-width="1" fill="none" fill-rule="evenodd">
        <g transform="translate(-310.000000, -2173.000000)" id="Block_with_icons" fill="#00B5FF">
            <g transform="translate(260.000000, 2173.000000)">
                <g id="Group-36">
                    <g id="Fast_icon" transform="translate(50.000000, 0.500000)">
                        <g id="right-arrow">
                            <g id="Capa_1">
                                <g id="Arrow_x5F_Right_x5F_1">
                                    <path d="M28.0273169,18.8767705 L10.3186335,1.75288615 C9.19436856,0.628621238 7.67721538,0 6.06335124,0 C4.44797599,0 2.93082281,0.628621238 1.78993571,1.77101945 C0.647537495,2.91341766 0.0189162562,4.43057084 0.0189162562,6.04443499 C0.0189162562,7.65829913 0.647537495,9.17696342 1.78993571,10.3178505 L14.68876,23.1532082 C14.9728484,23.4372967 15.1284926,23.8150738 15.1284926,24.2185399 C15.1284926,24.6220059 14.9713373,25.0012942 14.6857377,25.2868938 L1.79446903,38.0723849 C0.647537495,39.2208275 0.0189162562,40.7394918 0.0189162562,42.3518448 C0.0189162562,43.9641979 0.647537495,45.4828622 1.78993571,46.6252604 C2.93082281,47.7676586 4.4494871,48.3962798 6.06335124,48.3962798 C7.67721538,48.3962798 9.19587967,47.7676586 10.3382779,46.6252604 L12.7651185,44.1984197 L28.0031391,29.584487 C29.4522924,28.1353337 30.238069,26.2373812 30.238069,24.2185399 C30.238069,22.1996986 29.4522924,20.3032571 28.0273169,18.8767705 Z M25.8906091,27.4236015 L8.20157012,44.4885526 C7.05917191,45.6309508 5.06904169,45.6309508 3.92664347,44.4885526 C3.35544437,43.9158424 3.04113375,43.160288 3.04113375,42.3518448 C3.04113375,41.5464239 3.35544437,40.7863362 3.92664347,40.2151371 L16.8179122,27.4266237 C17.676222,26.568314 18.1507101,25.428938 18.1507101,24.2185399 C18.1507101,23.0066307 17.6792442,21.8687658 16.8224455,21.0134782 L3.92362126,8.17812054 C3.35544437,7.60994365 3.04113375,6.85136706 3.04113375,6.04443499 C3.04113375,5.23750291 3.35544437,4.47892632 3.92664347,3.90772722 C4.49784258,3.33652811 5.25490806,3.02221749 6.06335124,3.02221749 C6.87179442,3.02221749 7.6288599,3.33652811 8.20005901,3.90772722 L25.9072313,21.0316115 C26.7474078,21.8702769 27.2173626,23.0081418 27.2173626,24.2185399 C27.2173626,25.428938 26.7458967,26.568314 25.8906091,27.4236015 Z" id="Shape"></path>
                                </g>
                            </g>
                        </g>
                        <g id="right-arrow" transform="translate(25.344828, 0.000000)">
                            <g id="Capa_1">
                                <g id="Arrow_x5F_Right_x5F_1">
                                    <path d="M28.0084006,18.8767705 L10.2997172,1.75288615 C9.17545231,0.628621238 7.65829913,0 6.04443499,0 C4.42905974,0 2.91190655,0.628621238 1.77101945,1.77101945 C0.628621238,2.91341766 0,4.43057084 0,6.04443499 C0,7.65829913 0.628621238,9.17696342 1.77101945,10.3178505 L14.6698437,23.1532082 C14.9539322,23.4372967 15.1095764,23.8150738 15.1095764,24.2185399 C15.1095764,24.6220059 14.952421,25.0012942 14.6668215,25.2868938 L1.77555278,38.0723849 C0.628621238,39.2208275 0,40.7394918 0,42.3518448 C0,43.9641979 0.628621238,45.4828622 1.77101945,46.6252604 C2.91190655,47.7676586 4.43057084,48.3962798 6.04443499,48.3962798 C7.65829913,48.3962798 9.17696342,47.7676586 10.3193616,46.6252604 L12.7462023,44.1984197 L27.9842229,29.584487 C29.4333762,28.1353337 30.2191527,26.2373812 30.2191527,24.2185399 C30.2191527,22.1996986 29.4333762,20.3032571 28.0084006,18.8767705 Z M25.8716928,27.4236015 L8.18265386,44.4885526 C7.04025565,45.6309508 5.05012543,45.6309508 3.90772722,44.4885526 C3.33652811,43.9158424 3.02221749,43.160288 3.02221749,42.3518448 C3.02221749,41.5464239 3.33652811,40.7863362 3.90772722,40.2151371 L16.7989959,27.4266237 C17.6573057,26.568314 18.1317938,25.428938 18.1317938,24.2185399 C18.1317938,23.0066307 17.6603279,21.8687658 16.8035293,21.0134782 L3.904705,8.17812054 C3.33652811,7.60994365 3.02221749,6.85136706 3.02221749,6.04443499 C3.02221749,5.23750291 3.33652811,4.47892632 3.90772722,3.90772722 C4.47892632,3.33652811 5.23599181,3.02221749 6.04443499,3.02221749 C6.85287816,3.02221749 7.60994365,3.33652811 8.18114275,3.90772722 L25.888315,21.0316115 C26.7284915,21.8702769 27.1984463,23.0081418 27.1984463,24.2185399 C27.1984463,25.428938 26.7269804,26.568314 25.8716928,27.4236015 Z" id="Shape"></path>
                                </g>
                            </g>
                        </g>
                    </g>
                </g>
            </g>
        </g>
    </g>
</svg>