<?xml version="1.0" encoding="UTF-8"?>
<svg width="35px" height="40px" viewBox="0 0 35 40" version="1.1" xmlns="http://www.w3.org/2000/svg" xmlns:xlink="http://www.w3.org/1999/xlink">
    <!-- Generator: Sketch 41.2 (35397) - http://www.bohemiancoding.com/sketch -->
    <title>footer_icon_location</title>
    <desc>Created with Sketch.</desc>
    <defs></defs>
    <g id="Index-+-mobile" stroke="none" stroke-width="1" fill="none" fill-rule="evenodd">
        <g id="Desktop-HD" transform="translate(-854.000000, -6029.000000)" fill="#00B5FF">
            <g id="footer" transform="translate(-2.000000, 5801.000000)">
                <g id="contact-us" transform="translate(0.000000, 63.000000)">
                    <g id="Group-19" transform="translate(856.000000, 165.000000)">
                        <path d="M22.7430597,21.8736063 L18.2565701,19.3588258 L18.2565701,10.3330802 C20.7984469,9.96272913 22.7430597,7.81829963 22.7430597,5.22861666 C22.7430597,2.34348513 20.4255074,0.0506378071 17.5092891,0.0506378071 C14.5930708,0.0506378071 12.2755185,2.34348513 12.2755185,5.22861666 C12.2755185,7.81829963 14.2201314,9.96272913 16.7620082,10.3330802 L16.7620082,18.471093 L12.2755185,15.9563125 L0.312013317,20.7653274 L0.312013317,38.890334 L12.2755185,34.0813191 L22.7444618,40 L34.7079669,34.0813191 L34.7079669,15.9563125 L22.7444618,21.8749934 L22.7430597,21.8736063 Z M10.7795546,33.1186839 L1.8065752,36.669615 L1.8065752,21.7265756 L10.7795546,18.1021291 L10.7795546,33.120071 L10.7795546,33.1186839 Z M13.7700804,5.22861666 C13.7700804,3.15770254 15.4146592,1.52926772 17.5092891,1.52926772 C19.603919,1.52926772 21.2484979,3.15631546 21.2484979,5.22861666 C21.2484979,7.29953079 19.603919,8.92796561 17.5092891,8.92796561 C15.4146592,8.92796561 13.7700804,7.30091787 13.7700804,5.22861666 L13.7700804,5.22861666 Z M22.7430597,38.3715652 L12.2741165,32.4528843 L12.2741165,17.6568756 L16.7606061,20.1716561 L16.7606061,26.6812341 L18.2565701,26.6812341 L18.2565701,20.9844864 L22.7430597,23.4992669 L22.7430597,38.368791 L22.7430597,38.3715652 Z M33.212003,33.1921992 L24.2390237,37.6308631 L24.2390237,22.8348544 L33.212003,18.3961905 L33.212003,33.1921992 L33.212003,33.1921992 Z" id="footer_icon_location"></path>
                    </g>
                </g>
            </g>
        </g>
    </g>
</svg>