<?xml version="1.0" encoding="UTF-8" standalone="no"?>
<svg width="29px" height="27px" viewBox="0 0 29 27" version="1.1" xmlns="http://www.w3.org/2000/svg" xmlns:xlink="http://www.w3.org/1999/xlink">
    <!-- Generator: Sketch 41 (35326) - http://www.bohemiancoding.com/sketch -->
    <title>Shape</title>
    <desc>Created with Sketch.</desc>
    <defs></defs>
    <g id="Сontacts" stroke="none" stroke-width="1" fill="none" fill-rule="evenodd">
        <g id="Contacts" transform="translate(-610.000000, -330.000000)" fill="#00B5FF">
            <g id="Header">
                <g id="Group-5" transform="translate(609.000000, 222.000000)">
                    <g id="Group-8" transform="translate(1.000000, 108.000000)">
                        <path d="M8.96159337,1.53198324 C10.2922188,1.53198324 11.5129923,1.84940219 12.6274575,2.48895424 C13.2015222,2.36324377 13.8872107,2.29881715 14.6774356,2.29881715 C17.9481872,2.29881715 20.7334643,3.35164239 23.0350387,5.45415011 C25.3366131,7.55822921 26.4865144,10.1085805 26.4865144,13.1067754 C26.4865144,13.8390389 26.3961524,14.6043014 26.2172001,15.4025629 C26.6849566,16.3281063 26.9188348,17.2677921 26.9188348,18.2216204 C26.9188348,19.9454253 26.245549,21.420952 24.8954337,22.6450578 C23.5470903,23.8723063 21.9400634,24.4882876 20.0672657,24.4882876 C18.9528005,24.4882876 17.8755432,24.2337239 16.833722,23.7214537 C15.8999809,23.8487356 15.1806281,23.9131622 14.6774356,23.9131622 C11.4049122,23.9131622 8.60900422,22.860337 6.29148357,20.7562579 C3.97396292,18.6521788 2.81343079,16.1018275 2.81343079,13.1067754 C2.81343079,12.4043681 2.90379284,11.6893897 3.08274512,10.9539835 C2.43780818,9.99701246 2.1135679,8.93004479 2.1135679,7.74993769 C2.1135679,6.02770416 2.7797665,4.56160573 4.10862008,3.35164239 C5.43747367,2.13853629 7.05690324,1.53198324 8.96159337,1.53198324 L8.96159337,1.53198324 Z M14.5162014,17.5202318 C13.8760993,17.5202318 13.3668556,17.4349378 12.9790106,17.2643498 C12.5643632,17.0657964 12.2774209,16.8672431 12.1166071,16.6700881 C11.7334919,16.0450647 11.5238033,15.7178712 11.4922711,15.6913042 C11.3645661,15.3515264 11.1737967,15.0662808 10.9183866,14.8397622 C10.5983356,14.6440054 10.2782846,14.5419322 9.95665695,14.5419322 C9.50890086,14.5419322 9.14155168,14.6691742 8.85303279,14.9250562 C8.5645139,15.17954 8.42104276,15.4787683 8.42104276,15.8185461 C8.42104276,16.3582755 8.64807402,16.9385545 9.09583011,17.563578 C9.51047747,18.1298744 10.0875152,18.5996906 10.8237902,18.9660355 C11.8454309,19.4498344 13.1098688,19.6917338 14.6139509,19.6917338 C15.8594696,19.6917338 16.9630938,19.5211458 17.9248234,19.1813679 C18.8849764,18.7842613 19.5881427,18.2878781 20.0358988,17.6922181 C20.515187,17.0392295 20.7548311,16.328912 20.7548311,15.5640623 C20.7548311,14.9418354 20.6287026,14.3727425 20.3732924,13.8623766 C20.1163057,13.4373047 19.7174244,13.0541807 19.1719187,12.7158011 C18.5964575,12.401192 17.9894643,12.1467082 17.3493622,11.9495532 C16.2630807,11.6643076 15.4921204,11.4797369 15.0459409,11.3958411 C14.8204863,11.3664776 14.541427,11.3189367 14.20561,11.246227 C13.8697929,11.1763139 13.6537979,11.1273747 13.5592015,11.0980112 C13.1760863,10.9861502 12.9033335,10.8854752 12.7425197,10.8015795 C12.4855329,10.6883202 12.2789975,10.5317148 12.1181837,10.3317632 C11.9557933,10.1919369 11.8785396,10.005968 11.8785396,9.77805117 C11.8785396,9.43827333 12.1024176,9.14184164 12.5501737,8.8845613 C12.9679743,8.60071397 13.573391,8.45809117 14.3727302,8.45809117 C15.173646,8.45809117 15.7664499,8.58673134 16.1495651,8.83981689 C16.5642125,9.154426 16.8684974,9.50818647 17.0592667,9.90529308 C17.3162535,10.2744344 17.5243655,10.5289183 17.6836027,10.6701428 C17.9390129,10.8421291 18.2432978,10.9274231 18.5948809,10.9274231 C19.0111049,10.9274231 19.3800307,10.7848003 19.6969285,10.4995547 C19.987024,10.2464692 20.1304951,9.9346566 20.1304951,9.56411698 C20.1304951,9.28166791 20.0169795,8.91112829 19.7931015,8.45809117 C19.5376913,8.11831333 19.2002976,7.77853549 18.7856503,7.43875765 C18.3378942,7.1255468 17.7466669,6.8556821 17.0088154,6.62916354 C16.2441615,6.42921197 15.425903,6.33133358 14.5619229,6.33133358 C13.4110006,6.33133358 12.3862067,6.48514248 11.4906945,6.79975159 C10.5983356,7.07940413 9.90935878,7.50587426 9.43007057,8.07356892 C8.94920575,8.64126358 8.70956165,9.29285401 8.70956165,10.0311367 C8.70956165,10.7680212 8.9350163,11.4070272 9.38119578,11.9467566 C9.92670144,12.513053 10.5321181,12.9087614 11.2037523,13.1366782 C11.973136,13.4498891 12.9001803,13.7057711 13.9880384,13.9029262 C14.1788077,13.9322897 14.413722,13.9812289 14.6833216,14.051142 C14.9544978,14.1238517 15.1941419,14.1797822 15.4038305,14.2231283 C15.6103659,14.2622797 15.7790627,14.3000328 15.9067678,14.327998 C16.3545239,14.4720191 16.7218731,14.6677759 17.0088154,14.9250562 C17.2973342,15.1222113 17.4408054,15.4200412 17.4408054,15.8185461 C17.4408054,16.302345 17.1853952,16.6980534 16.6745749,17.0112642 C16.1006903,17.351042 15.3801814,17.5202318 14.5162014,17.5202318 L14.5162014,17.5202318 Z M9.57354171,0 C7.03678274,0 4.76016375,0.852940257 2.99278849,2.46793369 C1.25063892,4.05356361 0.326747832,6.08244281 0.326747832,8.329451 C0.326747832,9.49280558 0.57269836,10.5932383 1.0614462,11.6125719 C0.987345724,12.1117516 0.951083787,12.6095332 0.951083787,13.0975269 C0.951083787,16.5064914 2.29592866,19.4554274 4.94305004,21.8604393 C7.61224391,24.2822303 10.8837013,25.509905 14.6612491,25.509905 C15.061707,25.509905 15.5236526,25.4819397 16.073888,25.4260092 C17.1617461,25.8217176 18.2953258,26.0216691 19.4572844,26.0216691 C21.9609346,26.0216691 24.2265174,25.1631358 26.0112353,23.5369563 C27.7723041,21.938742 28.7056549,19.9014732 28.7056549,17.648872 C28.7056549,16.7022481 28.5306516,15.7626156 28.1822217,14.8467535 C28.2752414,14.2496953 28.3225396,13.6638233 28.3225396,13.0975269 C28.3225396,9.68996062 26.988731,6.74382108 24.3605289,4.34020747 C21.7039479,1.91422166 18.4403736,0.683750468 14.6612491,0.683750468 C14.221376,0.683750468 13.8004223,0.701927883 13.3983877,0.736884451 C12.2064736,0.247492501 10.9262696,0 9.57354171,0 Z" id="Shape"></path>
                    </g>
                </g>
            </g>
        </g>
    </g>
</svg>