<?xml version="1.0" encoding="UTF-8" standalone="no"?>
<svg width="38px" height="25px" viewBox="0 0 38 25" version="1.1" xmlns="http://www.w3.org/2000/svg" xmlns:xlink="http://www.w3.org/1999/xlink">
    <!-- Generator: Sketch 3.6.1 (26313) - http://www.bohemiancoding.com/sketch -->
    <title>Shape</title>
    <desc>Created with Sketch.</desc>
    <defs></defs>
    <g id="Welcome" stroke="none" stroke-width="1" fill="none" fill-rule="evenodd">
        <g id="Desktop-HD" transform="translate(-384.000000, -5912.000000)" fill="#00B5FF">
            <g id="contact-us" transform="translate(-2.000000, 5738.000000)">
                <g id="Group-18" transform="translate(386.000000, 169.000000)">
                    <path d="M36.4546819,5.76811329 L2.48689958e-14,5.76811329 L2.48689958e-14,29.8290888 L38,29.8290888 L38,5.76811329 L36.4546819,5.76811329 L36.4546819,5.76811329 Z M34.9335984,7.27157166 L20.2530762,21.7956001 C19.5830582,22.4584758 18.4155162,22.4584758 17.7454982,21.7956001 L3.06212485,7.27157166 L34.9321729,7.27157166 L34.9335984,7.27157166 Z M1.51965786,7.87098049 L11.3888806,17.6335873 L1.51965786,27.3976045 L1.51965786,7.86957011 L1.51965786,7.87098049 Z M2.73281813,28.3256304 L12.4651861,18.6984195 L16.6720438,22.8590219 C17.2935924,23.4739448 18.1204232,23.8138449 19,23.8138449 C19.8795768,23.8138449 20.7064076,23.4739448 21.3279562,22.8590219 L25.5348139,18.6970091 L35.2657563,28.32422 L2.73139256,28.32422 L2.73281813,28.3256304 Z M36.4803421,27.3990149 L26.6111194,17.6335873 L36.4803421,7.86815974 L36.4803421,27.3990149 L36.4803421,27.3990149 Z" id="Shape"></path>
                </g>
            </g>
        </g>
    </g>
</svg>