<?xml version="1.0" encoding="UTF-8" standalone="no"?>
<svg width="34px" height="38px" viewBox="0 0 34 38" version="1.1" xmlns="http://www.w3.org/2000/svg" xmlns:xlink="http://www.w3.org/1999/xlink">
    <!-- Generator: Sketch 3.6.1 (26313) - http://www.bohemiancoding.com/sketch -->
    <title>Shape</title>
    <desc>Created with Sketch.</desc>
    <defs></defs>
    <g id="Welcome" stroke="none" stroke-width="1" fill="none" fill-rule="evenodd">
        <g id="Desktop-HD" transform="translate(-625.000000, -5909.000000)" fill="#00B5FF">
            <g id="contact-us" transform="translate(-2.000000, 5738.000000)">
                <g id="Group-16" transform="translate(627.000000, 169.000000)">
                    <path d="M26.0940169,39.3281631 C22.9538478,39.3281631 15.3197881,35.3550184 8.91027812,26.8259842 C2.91540993,18.849024 -7.81597009e-14,13.0867502 -7.81597009e-14,9.20945175 C-7.81597009e-14,6.15643064 2.13133646,4.69956833 3.27579955,3.91618535 L3.55868603,3.72065909 C4.82327899,2.82609451 6.79056713,2.536 7.54493107,2.536 C8.86765139,2.536 9.42438231,3.30149169 9.76152099,3.96858127 C10.0482826,4.53343491 12.423754,9.57877912 12.6640137,10.2062523 C13.0334454,11.1711041 12.9120238,12.5768484 11.7701441,13.3857904 L11.5699277,13.5238089 C11.002863,13.9123055 9.94882025,14.6343469 9.802856,15.5135761 C9.73181145,15.9404112 9.87648398,16.3876935 10.2446239,16.8784261 C12.0827401,19.329533 17.9536033,26.526944 19.0115212,27.5032974 C19.8408049,28.270067 20.8909725,28.3786927 21.6065848,27.7818903 C22.3467399,27.1646408 22.6761282,26.8004252 22.6787117,26.7953134 L22.7549231,26.7224703 C22.8169256,26.6700743 23.3956157,26.2164023 24.3411541,26.2164023 C25.0231818,26.2164023 25.7168349,26.4489891 26.4027377,26.9077729 C28.1827266,28.0975438 32.1986812,30.7556786 32.1986812,30.7556786 L32.2632671,30.8042406 C32.7773713,31.2400214 33.5201098,32.4949677 32.6533663,34.128187 C31.7556215,35.8240259 28.9719669,39.3243293 26.0927251,39.3243293 L26.0940169,39.3281631 Z M7.54363935,3.90084996 C6.89132122,3.90084996 5.28829786,4.17305318 4.35826013,4.83119712 L4.05858131,5.03822492 C2.99032964,5.76921197 1.37697253,6.8720823 1.37697253,9.2107297 C1.37697253,12.7851542 4.20325384,18.2816145 10.0146979,26.0144863 C16.3622054,34.4604539 23.6190831,37.967147 26.0927251,37.967147 C28.1969355,37.967147 30.6098667,35.0585342 31.4339835,33.5019918 C31.9403374,32.5460857 31.5256955,32.006791 31.3823147,31.8611048 C30.9172959,31.553119 27.2953156,29.1556859 25.6302897,28.042592 C25.1768963,27.73844 24.741587,27.5850861 24.3398624,27.5850861 C23.9743059,27.5850861 23.7340461,27.7128811 23.6526678,27.763999 C23.518329,27.9058514 23.1488974,28.2815685 22.4914124,28.8285309 C21.2629876,29.8521683 19.3938701,29.7282073 18.0685663,28.5039317 C16.8763096,27.4023394 10.8543153,19.9851211 9.13503724,17.6937578 C8.54084647,16.9014292 8.30704532,16.0937651 8.44009238,15.2950468 C8.68164385,13.8471301 10.0482826,12.9103932 10.781979,12.4068811 L10.9654032,12.2803641 C11.6215964,11.8164685 11.4820908,10.9768558 11.3735864,10.693151 C11.1707865,10.1640799 8.82502466,5.16985371 8.52792928,4.58327493 C8.28508609,4.10276596 8.09391167,3.9021279 7.54105591,3.9021279 L7.54363935,3.90084996 Z" id="Shape"></path>
                </g>
            </g>
        </g>
    </g>
</svg>