<?xml version="1.0" encoding="UTF-8" standalone="no"?>
<svg width="121px" height="34px" viewBox="0 0 121 34" version="1.1" xmlns="http://www.w3.org/2000/svg" xmlns:xlink="http://www.w3.org/1999/xlink">
    <!-- Generator: Sketch 41 (35326) - http://www.bohemiancoding.com/sketch -->
    <title>jaws</title>
    <desc>Created with Sketch.</desc>
    <defs></defs>
    <g id="SEO_desktop" stroke="none" stroke-width="1" fill="none" fill-rule="evenodd">
        <g transform="translate(-43.000000, -37.000000)" id="header" fill="#00B5FF">
            <g>
                <g id="JAWS" transform="translate(40.000000, 37.000000)">
                    <g id="jaws" transform="translate(3.495223, 0.000000)">
                        <path d="M0,28.0969149 C0.962043568,29.7899033 2.32541868,31.0741062 4.09108547,31.9533804 C5.85771238,32.8316904 8.32810969,33.2385475 11.5406823,33.3166409 C13.8104138,33.3715955 15.5703199,33.0042672 17.4905665,32.0613614 C17.6912323,24.7099741 20.444866,18.5666247 20.444866,18.5666247 C20.444866,18.5666247 19.0699694,14.3659697 23.037199,12.2256314 L23.037199,0.50583288 L14.3855277,0.501976415 L14.3855277,20.7464918 C14.3855277,22.7075045 13.7777697,23.7111496 13.2641037,24.5373973 C12.7494776,25.3655733 11.9439341,25.777251 10.8426727,25.777251 C10.1494636,25.777251 9.61371481,25.6403464 9.23638635,25.3607527 C8.68623569,24.9355774 6.58836623,23.5173622 6.35793663,22.8289831 L0,28.0969149" id="Fill-1"></path>
                        <path d="M24.4514606,29.357015 C24.4514606,29.357015 29.6188443,30.1630163 30.0115348,29.4457137 C30.4042252,28.7284111 27.3923183,24.3696411 27.3923183,24.3696411 C27.3923183,24.3696411 31.7704807,27.2031791 32.4473676,26.6999103 C33.1242546,26.1976057 32.0854011,20.9942697 32.0854011,20.9942697 C32.0854011,20.9942697 34.9897742,25.2701258 35.7770753,25.1708218 C36.5643764,25.0724819 37.7328465,19.8016577 37.7328465,19.8016577 C37.7328465,19.8016577 38.6968103,25.4687337 39.4908323,25.7126552 C40.2848543,25.9565766 43.9314027,21.2516888 43.9314027,21.2516888 C43.9314027,21.2516888 42.695724,26.8291019 43.0106444,27.0759157 C43.4859055,27.443244 48.6801726,25.0821231 48.6801726,25.0821231 C48.6801726,25.0821231 45.3850294,29.1873305 45.615459,29.7407333 C45.8458886,30.2951002 51.2849872,30.2536432 51.2849872,30.2536432 C51.2849872,30.2536432 49.0661422,32.2956417 46.3259502,33.3831649 C46.4421252,33.4178731 46.9519506,33.3995549 46.9519506,33.3995549 C46.9519506,33.3995549 56.196018,33.408232 56.1710548,33.3831649 C56.1710548,27.8009312 54.9017717,22.8521219 53.0631356,18.5926558 C53.346372,18.1192747 53.5163138,17.5408049 53.5163138,16.9112369 C53.5163138,15.3136961 52.4428959,14.0198519 51.1169656,14.0198519 C50.9988704,14.0198519 50.886536,14.0420266 50.7722813,14.0613089 C45.7498762,5.47970919 39.0347737,0.750718436 39.0347737,0.750718436 C38.2858775,-0.00225644255 37.0694013,-0.00225644255 36.3185849,0.750718436 C36.3185849,0.750718436 29.6562891,5.53852029 24.6406049,14.0690219 C24.5081079,14.0420266 24.3756109,14.0198519 24.236393,14.0198519 C22.9104627,14.0198519 21.8370448,15.3136961 21.8370448,16.9112369 C21.8370448,17.5591231 22.0185081,18.1501264 22.3171065,18.6331487 C20.4631083,22.8964713 19.1851842,27.8394959 19.1851842,33.3831649 L30.044179,33.3831649 C29.3039239,33.1672029 28.8853101,32.9435279 28.8853101,32.9435279 C26.252652,31.6197961 24.4514606,29.357015 24.4514606,29.357015 L24.4514606,29.357015 Z M25.4365471,16.9112369 C25.4365471,17.8695686 24.8998382,18.6476105 24.236393,18.6476105 C23.574868,18.6476105 23.037199,17.8695686 23.037199,16.9112369 C23.037199,15.9529052 23.574868,15.1758274 24.236393,15.1758274 C24.8998382,15.1758274 25.4365471,15.9529052 25.4365471,16.9112369 L25.4365471,16.9112369 Z M51.1169656,15.1758274 C51.7804108,15.1758274 52.3180799,15.9529052 52.3180799,16.9112369 C52.3180799,17.8695686 51.7804108,18.6476105 51.1169656,18.6476105 C50.4554406,18.6476105 49.9168115,17.8695686 49.9168115,16.9112369 C49.9168115,15.9529052 50.4554406,15.1758274 51.1169656,15.1758274 L51.1169656,15.1758274 Z" id="Fill-3"></path>
                        <path d="M90.5761139,0.515474044 L83.6901094,18.452859 L76.2779574,0.515474044 L69.4389989,0.515474044 L61.8895493,18.452859 L55.3002229,0.515474044 L44.556443,0.515474044 C51.1659319,9.86643864 51.8687422,12.2102055 51.8687422,12.2102055 C56.4072451,13.7836434 54.8624067,18.5511988 54.8624067,18.5511988 C54.8624067,18.5511988 57.9271203,22.9427489 58.1277861,33.3079639 L64.1861643,33.3079639 C64.1861643,33.3079639 71.7586569,26.2294215 68.5576057,14.9820401 C80.0771653,18.6774981 81.3483686,33.3079639 81.3483686,33.3079639 L86.6405684,33.3079639 L101.204679,0.515474044 L90.5761139,0.515474044" id="Fill-7"></path>
                        <path d="M96.4856729,15.0572411 C97.4102717,16.3077001 98.5672203,17.326771 99.9526782,18.1115618 C101.338136,18.8963525 102.937702,19.6040139 104.751375,20.2335819 C106.388385,20.7667382 107.643266,21.303751 108.516978,21.8426921 C109.38877,22.3816331 109.85251,23.0796534 109.904356,23.9377169 C109.93508,24.4120622 109.720973,24.9355774 109.264914,25.5082625 C108.809816,26.0809476 107.75176,26.4164601 106.092667,26.5157641 C104.292436,26.622781 102.604539,26.3345102 100.971369,25.8302774 C99.0319199,25.2325252 97.5955755,24.4834068 95.9076787,23.5838862 L92.7594343,29.8564273 C94.5423833,30.5033494 97.0406242,31.7788753 101.606971,32.8442239 C103.215177,33.2202293 104.537267,33.2886815 105.510832,33.3147127 C106.486317,33.3407438 107.307223,33.333995 107.975469,33.2944662 C110.364256,33.1527411 112.456364,32.6398312 114.256595,31.7557365 C116.055867,30.87357 117.425963,29.6732452 118.371684,28.1586184 C119.314525,26.6430274 119.725458,24.8892998 119.605442,22.8993636 C119.496949,21.1061072 118.980402,19.6358297 118.063484,18.4846748 C117.144646,17.3325557 115.912808,16.3414441 114.36989,15.5123041 C112.822171,14.6821999 110.773268,13.7672534 108.22222,12.7665007 C106.785876,12.1918873 105.780627,11.6905468 105.211274,11.2634432 C104.63904,10.8373038 104.336601,10.308968 104.297236,9.68036418 C104.257871,9.00837508 104.495022,8.42508468 105.010608,7.93242122 C105.524274,7.44168599 106.386465,7.16016401 107.59622,7.08689117 C109.443497,6.97794602 111.200523,7.24114978 112.865377,7.88035893 C114.531191,8.51860396 115.198476,9.31592819 116.575293,10.1710994 L119.637127,4.19357796 C119.249237,3.9718312 115.883044,2.139046 114.864354,1.76882531 C113.846623,1.39956875 112.57542,1.0254916 111.02578,0.773857229 C109.477102,0.519330509 108.086843,0.376641288 105.988974,0.614778029 C104.428773,0.791211323 102.857051,1.18264257 102.085112,2.50541021 L96.4856729,15.0572411" id="Fill-9"></path>
                    </g>
                </g>
            </g>
        </g>
    </g>
</svg>