<?xml version="1.0" encoding="UTF-8" standalone="no"?>
<svg width="50px" height="50px" viewBox="0 0 50 50" version="1.1" xmlns="http://www.w3.org/2000/svg" xmlns:xlink="http://www.w3.org/1999/xlink">
    <!-- Generator: Sketch 41 (35326) - http://www.bohemiancoding.com/sketch -->
    <title>line-chart</title>
    <desc>Created with Sketch.</desc>
    <defs></defs>
    <g id="Contextual_advertising_desktop" stroke="none" stroke-width="1" fill="none" fill-rule="evenodd">
        <g transform="translate(-1062.000000, -2173.000000)" id="Block_with_icons" fill="#00B5FF">
            <g transform="translate(260.000000, 2173.000000)">
                <g id="Group-8" transform="translate(710.000000, 0.000000)">
                    <g id="line-chart" transform="translate(92.000000, 0.000000)">
                        <g id="Capa_1">
                            <g id="Statics">
                                <path d="M49.3051852,2.40531987 C49.7791246,1.69131313 49.5824242,0.732592593 48.8684175,0.258653199 C48.152862,-0.213737374 47.1956902,-0.0185858586 46.7217508,0.696969697 L40.9926599,9.36882155 C40.7541414,9.33010101 40.5171717,9.29447811 40.2693603,9.29447811 C37.7107071,9.29447811 35.6228956,11.3807407 35.6228956,13.9409428 C35.6228956,14.433468 35.7204714,14.8996633 35.862963,15.3457239 L30.3305724,22.4006061 C29.6165657,21.9545455 28.7817508,21.6850505 27.8803367,21.6850505 C25.3820875,21.6850505 23.3515825,23.6721886 23.2524579,26.1456566 L14.5000673,31.2428283 C13.6482155,30.1493603 12.333266,29.4291582 10.8417508,29.4291582 C8.28,29.4291582 6.1952862,31.5154209 6.1952862,34.0756229 C6.1952862,35.0823569 6.52673401,36.0116498 7.07191919,36.77367 L0.254006734,47.1647138 C-0.215286195,47.8818182 -0.017037037,48.8405387 0.698518519,49.3098316 C0.96026936,49.4817508 1.25609428,49.5638384 1.54727273,49.5638384 C2.05218855,49.5638384 2.54781145,49.3191246 2.84363636,48.8653199 L9.61973064,38.5408754 C10.0115825,38.6461953 10.4189226,38.7220875 10.8417508,38.7220875 C13.34,38.7220875 15.3705051,36.7380471 15.4696296,34.2599327 L24.2220202,29.1658586 C25.0723232,30.2608754 26.3872727,30.9779798 27.8787879,30.9779798 C30.4405387,30.9779798 32.5252525,28.893266 32.5252525,26.3315152 C32.5252525,25.8405387 32.4292256,25.3727946 32.2882828,24.9282828 L37.8175758,17.8749495 C38.5315825,18.3194613 39.3663973,18.5889562 40.2678114,18.5889562 C42.8280135,18.5889562 44.9142761,16.5042424 44.9142761,13.9424916 C44.9142761,12.7545455 44.4527273,11.6827609 43.7201347,10.8603367 L49.3051852,2.40531987 Z M10.8417508,35.6244444 C9.98680135,35.6244444 9.29292929,34.9321212 9.29292929,34.0756229 C9.29292929,33.2222222 9.98680135,32.5268013 10.8417508,32.5268013 C11.6967003,32.5268013 12.3905724,33.2222222 12.3905724,34.0756229 C12.3905724,34.9321212 11.6967003,35.6244444 10.8417508,35.6244444 Z M27.8787879,27.8803367 C27.0238384,27.8803367 26.3299663,27.1880135 26.3299663,26.3315152 C26.3299663,25.4781145 27.0238384,24.7826936 27.8787879,24.7826936 C28.7337374,24.7826936 29.4276094,25.4781145 29.4276094,26.3315152 C29.4276094,27.1880135 28.7337374,27.8803367 27.8787879,27.8803367 Z M40.2693603,15.4897643 C39.4144108,15.4897643 38.7205387,14.7958923 38.7205387,13.9409428 C38.7205387,13.0875421 39.4144108,12.3921212 40.2693603,12.3921212 C41.1243098,12.3921212 41.8181818,13.0875421 41.8181818,13.9409428 C41.8181818,14.7958923 41.1227609,15.4897643 40.2693603,15.4897643 Z M9.29292929,46.4661953 C8.43643098,46.4661953 7.74410774,47.1616162 7.74410774,48.0150168 C7.74410774,48.8715152 8.43643098,49.5638384 9.29292929,49.5638384 C10.1494276,49.5638384 10.8417508,48.8715152 10.8417508,48.0150168 C10.8417508,47.1616162 10.1509764,46.4661953 9.29292929,46.4661953 Z M17.037037,46.4661953 C16.1805387,46.4661953 15.4882155,47.1616162 15.4882155,48.0150168 C15.4882155,48.8715152 16.1805387,49.5638384 17.037037,49.5638384 C17.8935354,49.5638384 18.5858586,48.8715152 18.5858586,48.0150168 C18.5858586,47.1616162 17.8950842,46.4661953 17.037037,46.4661953 Z M24.7811448,46.4661953 C23.9246465,46.4661953 23.2323232,47.1616162 23.2323232,48.0150168 C23.2323232,48.8715152 23.9246465,49.5638384 24.7811448,49.5638384 C25.6376431,49.5638384 26.3299663,48.8715152 26.3299663,48.0150168 C26.3299663,47.1616162 25.6391919,46.4661953 24.7811448,46.4661953 Z M32.5252525,46.4661953 C31.6687542,46.4661953 30.976431,47.1616162 30.976431,48.0150168 C30.976431,48.8715152 31.6687542,49.5638384 32.5252525,49.5638384 C33.3832997,49.5638384 34.0740741,48.8715152 34.0740741,48.0150168 C34.0740741,47.1616162 33.3832997,46.4661953 32.5252525,46.4661953 Z M40.2693603,46.4661953 C39.412862,46.4661953 38.7205387,47.1616162 38.7205387,48.0150168 C38.7205387,48.8715152 39.412862,49.5638384 40.2693603,49.5638384 C41.1274074,49.5638384 41.8181818,48.8715152 41.8181818,48.0150168 C41.8181818,47.1616162 41.1274074,46.4661953 40.2693603,46.4661953 Z M48.013468,46.4661953 C47.1569697,46.4661953 46.4646465,47.1616162 46.4646465,48.0150168 C46.4646465,48.8715152 47.1569697,49.5638384 48.013468,49.5638384 C48.8715152,49.5638384 49.5622896,48.8715152 49.5622896,48.0150168 C49.5622896,47.1616162 48.8715152,46.4661953 48.013468,46.4661953 Z M1.54882155,41.8197306 C2.40531987,41.8197306 3.0976431,41.1274074 3.0976431,40.2709091 C3.0976431,39.4175084 2.40531987,38.7220875 1.54882155,38.7220875 C0.692323232,38.7220875 0,39.4175084 0,40.2709091 C0,41.1274074 0.692323232,41.8197306 1.54882155,41.8197306 Z M1.54882155,34.0756229 C2.40531987,34.0756229 3.0976431,33.3832997 3.0976431,32.5268013 C3.0976431,31.6734007 2.40531987,30.9779798 1.54882155,30.9779798 C0.692323232,30.9779798 0,31.6734007 0,32.5268013 C0,33.3832997 0.692323232,34.0756229 1.54882155,34.0756229 Z M1.54882155,26.3315152 C2.40531987,26.3315152 3.0976431,25.6391919 3.0976431,24.7826936 C3.0976431,23.9292929 2.40531987,23.2338721 1.54882155,23.2338721 C0.692323232,23.2338721 0,23.9277441 0,24.7826936 C0,25.6391919 0.692323232,26.3315152 1.54882155,26.3315152 Z M1.54882155,18.5874074 C2.40531987,18.5874074 3.0976431,17.896633 3.0976431,17.0385859 C3.0976431,16.1836364 2.40531987,15.4897643 1.54882155,15.4897643 C0.692323232,15.4897643 0,16.1836364 0,17.0385859 C0,17.8981818 0.692323232,18.5874074 1.54882155,18.5874074 Z M1.54882155,10.8432997 C2.40531987,10.8432997 3.0976431,10.1525253 3.0976431,9.29447811 C3.0976431,8.43952862 2.40531987,7.74565657 1.54882155,7.74565657 C0.692323232,7.74565657 0,8.43952862 0,9.29447811 C0,10.1540741 0.692323232,10.8432997 1.54882155,10.8432997 Z M1.54882155,3.09919192 C2.40531987,3.09919192 3.0976431,2.40841751 3.0976431,1.55037037 C3.0976431,0.695420875 2.40531987,0.00154882155 1.54882155,0.00154882155 C0.692323232,0.00154882155 0,0.695420875 0,1.55037037 C0,2.40996633 0.692323232,3.09919192 1.54882155,3.09919192 Z" id="Shape"></path>
                            </g>
                        </g>
                    </g>
                </g>
            </g>
        </g>
    </g>
</svg>