<?xml version="1.0" encoding="UTF-8" standalone="no"?>
<svg width="38px" height="38px" viewBox="0 0 38 38" version="1.1" xmlns="http://www.w3.org/2000/svg" xmlns:xlink="http://www.w3.org/1999/xlink">
    <!-- Generator: Sketch 41 (35326) - http://www.bohemiancoding.com/sketch -->
    <title>Menu</title>
    <desc>Created with Sketch.</desc>
    <defs></defs>
    <g id="Welcome_desktop" stroke="none" stroke-width="1" fill="none" fill-rule="evenodd">
        <g id="JAWS_mobile" transform="translate(-266.000000, -20.000000)">
            <g id="1_Header">
                <g id="Menu" transform="translate(266.168224, 20.000000)">
                    <path d="M18.6818536,37.4804688 C28.9995564,37.4804688 37.3637072,29.09018 37.3637072,18.7402344 C37.3637072,8.39028872 28.9995564,0 18.6818536,0 C8.36415075,0 0,8.39028872 0,18.7402344 C0,29.09018 8.36415075,37.4804688 18.6818536,37.4804688 Z" id="Oval" fill-opacity="0.6" fill="#000000" opacity="0.300000012"></path>
                    <path d="M10.7067757,18.2226 C10.7067757,17.6792048 11.1500214,17.238696 11.6924924,17.238696 L25.6712147,17.238696 C26.2156111,17.238696 26.6569315,17.6754164 26.6569315,18.2226 C26.6569315,18.7659952 26.2136857,19.206504 25.6712147,19.206504 L11.6924924,19.206504 C11.1480961,19.206504 10.7067757,18.7697836 10.7067757,18.2226 Z M10.7067757,12.4146983 C10.7067757,11.8713031 11.1500214,11.4307943 11.6924924,11.4307943 L25.6712147,11.4307943 C26.2156111,11.4307943 26.6569315,11.8675146 26.6569315,12.4146983 C26.6569315,12.9580934 26.2136857,13.3986022 25.6712147,13.3986022 L11.6924924,13.3986022 C11.1480961,13.3986022 10.7067757,12.9618819 10.7067757,12.4146983 Z M10.7067757,24.0305017 C10.7067757,23.4871066 11.1500214,23.0465977 11.6924924,23.0465977 L25.6712147,23.0465977 C26.2156111,23.0465977 26.6569315,23.4833181 26.6569315,24.0305017 C26.6569315,24.5738969 26.2136857,25.0144057 25.6712147,25.0144057 L11.6924924,25.0144057 C11.1480961,25.0144057 10.7067757,24.5776854 10.7067757,24.0305017 Z" id="Combined-Shape" fill="#00B5FF"></path>
                </g>
            </g>
        </g>
    </g>
</svg>