<?xml version="1.0" encoding="UTF-8" standalone="no"?>
<svg width="48px" height="48px" viewBox="0 0 48 48" version="1.1" xmlns="http://www.w3.org/2000/svg" xmlns:xlink="http://www.w3.org/1999/xlink">
    <!-- Generator: Sketch 41 (35326) - http://www.bohemiancoding.com/sketch -->
    <title>People_ icon</title>
    <desc>Created with Sketch.</desc>
    <defs></defs>
    <g id="ServiÑes-desktop" stroke="none" stroke-width="1" fill="none" fill-rule="evenodd">
        <g id="Services_desktop" transform="translate(-327.000000, -515.000000)">
            <g id="header" transform="translate(1.000000, 35.000000)">
                <g id="3" transform="translate(326.000000, 480.000000)">
                    <g id="People_-icon">
                        <path d="M37.8906122,0.0146661637 C34.5502041,0.0146661637 31.8367347,2.72301773 31.8367347,6.05712561 C31.8367347,9.3912335 34.5502041,12.0995851 37.8906122,12.0995851 C41.2310204,12.0995851 43.9444898,9.3912335 43.9444898,6.05712561 C43.9444898,2.72301773 41.2310204,0.0146661637 37.8906122,0.0146661637 Z M37.8906122,9.1234125 C36.1939669,9.1234125 34.8185312,7.75057092 34.8185312,6.05712561 C34.8185312,4.36368031 36.1939669,2.99083873 37.8906122,2.99083873 C39.5872576,2.99083873 40.9626933,4.36368031 40.9626933,6.05712561 C40.9626933,7.75057092 39.5872576,9.1234125 37.8906122,9.1234125 Z" id="Shape" fill="#00B5FF"></path>
                        <path d="M23.9804082,12.0995851 C27.3208163,12.0995851 30.0342857,9.3912335 30.0342857,6.05712561 C30.0342857,2.72301773 27.3208163,0.0146661637 23.9804082,0.0146661637 C20.64,0.0146661637 17.9265306,2.72301773 17.9265306,6.05712561 C17.9265306,9.3912335 20.64,12.0995851 23.9804082,12.0995851 Z M23.9804082,2.81761615 C25.7729014,2.81761615 27.2260392,4.26801315 27.2260392,6.05712561 C27.2260392,7.84623808 25.7729014,9.29663508 23.9804082,9.29663508 C22.1879149,9.29663508 20.7347772,7.84623808 20.7347772,6.05712561 C20.7347772,4.27669816 22.1879149,2.81761615 23.9804082,2.81761615 Z" id="Shape" fill="#00B5FF"></path>
                        <path d="M41.0242042,13.3217654 L37.3352392,13.3217654 C36.5657618,13.3217654 35.9433904,13.8595247 35.9433904,14.5243908 C35.9433904,15.1892569 36.5657618,15.7270162 37.3352392,15.7270162 L41.0242042,15.7270162 C43.3213204,15.7270162 45.1884346,17.3402942 45.1884346,19.3251151 L45.1884346,26.9808525 C45.1884346,28.4768012 44.0907978,29.8358657 42.4500005,30.3540702 C41.90684,30.5300641 41.544733,30.9798265 41.544733,31.478476 L41.544733,42.2923274 C41.544733,43.6025047 40.311306,44.6682459 38.794983,44.6682459 L34.7665426,44.6682459 C33.9970653,44.6682459 33.3746939,45.2060053 33.3746939,45.8708714 C33.3746939,46.5357375 33.9970653,47.0734968 34.7665426,47.0734968 L38.794983,47.0734968 C41.8389449,47.0734968 44.3171147,44.9322369 44.3171147,42.3021049 L44.3171147,32.2313391 C46.53502,31.1949302 47.9608163,29.1709996 47.9608163,26.9612976 L47.9608163,19.3055602 C47.9608163,16.0007846 44.8489593,13.3217654 41.0242042,13.3217654 Z" id="Shape" fill="#00B5FF"></path>
                        <path d="M21.2571429,47.0441645 L26.7036735,47.0441645 C29.3387755,47.0441645 31.4840816,44.9029046 31.4840816,42.2727725 L31.4840816,32.2313391 C33.4040816,31.1949302 34.6383673,29.1709996 34.6383673,26.9612976 L34.6383673,19.3055602 C34.6383673,16.0007846 31.9444898,13.3119879 28.6334694,13.3119879 L19.317551,13.3119879 C16.0065306,13.3119879 13.3126531,16.0007846 13.3126531,19.3055602 L13.3126531,26.9612976 C13.3126531,29.1709996 14.5469388,31.1949302 16.4669388,32.2313391 L16.4669388,42.2727725 C16.4767347,44.9029046 18.6220408,47.0441645 21.2571429,47.0441645 Z M15.964898,27.0556844 L15.964898,19.6245818 C15.964898,17.6979997 17.5337982,16.1320585 19.4640209,16.1320585 L28.5065913,16.1320585 C30.4368141,16.1320585 32.0057143,17.6979997 32.0057143,19.6245818 L32.0057143,27.0556844 C32.0057143,28.507739 31.0833911,29.8269258 29.7141691,30.329925 C29.2577618,30.500755 28.9534902,30.9373204 28.9534902,31.4213386 L28.9534902,41.9178896 C28.9534902,43.1896237 27.9170652,44.2240939 26.642928,44.2240939 L21.3562097,44.2240939 C20.0820725,44.2240939 19.0456475,43.1896237 19.0456475,41.9178896 L19.0456475,31.4213386 C19.0456475,30.9373204 18.7413759,30.500755 18.2849686,30.329925 C16.8872211,29.8269258 15.964898,28.507739 15.964898,27.0556844 Z" id="Shape" fill="#00B5FF"></path>
                        <path d="M16.1240816,6.05712561 C16.1240816,2.72301773 13.4106122,0.0146661637 10.0702041,0.0146661637 C6.72979592,0.0146661637 4.01632653,2.72301773 4.01632653,6.05712561 C4.01632653,9.3912335 6.72979592,12.0995851 10.0702041,12.0995851 C13.4008163,12.0995851 16.1240816,9.3912335 16.1240816,6.05712561 Z M6.82457309,6.05712561 C6.82457309,4.27669816 8.27771083,2.81761615 10.0702041,2.81761615 C11.8626973,2.81761615 13.3158351,4.26801315 13.3158351,6.05712561 C13.3158351,7.84623808 11.8626973,9.29663508 10.0702041,9.29663508 C8.27771083,9.29663508 6.82457309,7.84623808 6.82457309,6.05712561 Z" id="Shape" fill="#00B5FF"></path>
                        <path d="M9.00046874,47.0441645 L13.2193846,47.0441645 C13.9749795,47.0441645 14.5861224,46.5064051 14.5861224,45.841539 C14.5861224,45.176673 13.9749795,44.6389136 13.2193846,44.6389136 L9.00046874,44.6389136 C7.51150231,44.6389136 6.30032812,43.5731724 6.30032812,42.2629951 L6.30032812,31.4589212 C6.30032812,30.9602716 5.94475405,30.5105092 5.41139294,30.3345153 C3.8113096,29.8163108 2.73347569,28.4670238 2.73347569,26.9612976 L2.73347569,19.3055602 C2.73347569,17.3207393 4.56690451,15.7074613 6.82257754,15.7074613 L10.6859193,15.7074613 C11.4415142,15.7074613 12.0526572,15.169702 12.0526572,14.5048359 C12.0526572,13.8399698 11.4415142,13.3022105 10.6859193,13.3022105 L6.81146585,13.3022105 C3.0557147,13.3022105 0,15.9910072 0,19.2957827 L0,26.9515202 C0,29.1612222 1.40007292,31.1851528 3.57796412,32.2215617 L3.57796412,42.2629951 C3.57796412,44.9029046 6.01142419,47.0441645 9.00046874,47.0441645 Z" id="Shape" fill="#00B5FF"></path>
                        <rect id="Rectangle-2" x="0" y="0" width="48" height="48"></rect>
                    </g>
                </g>
            </g>
        </g>
    </g>
</svg>