<?xml version="1.0" encoding="UTF-8" standalone="no"?>
<svg width="38px" height="38px" viewBox="0 0 38 38" version="1.1" xmlns="http://www.w3.org/2000/svg" xmlns:xlink="http://www.w3.org/1999/xlink">
    <!-- Generator: Sketch 41 (35326) - http://www.bohemiancoding.com/sketch -->
    <title>Phone</title>
    <desc>Created with Sketch.</desc>
    <defs></defs>
    <g id="Welcome_desktop" stroke="none" stroke-width="1" fill="none" fill-rule="evenodd">
        <g id="JAWS_mobile" transform="translate(-172.000000, -20.000000)">
            <g id="1_Header">
                <g id="Phone" transform="translate(172.461059, 20.000000)">
                    <path d="M18.6818536,37.4804688 C28.9995564,37.4804688 37.3637072,29.09018 37.3637072,18.7402344 C37.3637072,8.39028872 28.9995564,0 18.6818536,0 C8.36415075,0 0,8.39028872 0,18.7402344 C0,29.09018 8.36415075,37.4804688 18.6818536,37.4804688 Z" id="Oval" fill-opacity="0.6" fill="#000000" opacity="0.300000012"></path>
                    <g id="phone" transform="translate(12.959502, 9.308071)" fill="#00B5FF">
                        <path d="M8.00213626,12.777211 L8.79719224,12.5590461 C9.26607141,12.4247908 9.77572269,12.6429557 9.93881109,13.0289396 L11.3454486,16.5699228 C11.508537,16.9559067 11.2435183,17.3754545 10.7746392,17.5097098 L9.97958319,17.7278746 L8.00213626,12.777211 L8.00213626,12.777211 L8.00213626,12.777211 Z M4.57727972,9.40404688 C5.84121487,12.5926099 6.71781506,12.9785939 7.26823843,12.9785939 L9.20491326,17.9460395 C7.87981996,18.2984596 5.61696831,16.8384334 4.80152628,16.0664655 C3.37450272,14.6903488 2.00863731,12.5254823 1.13203712,10.2934882 C0.133120633,7.74263771 -0.152284079,5.66168076 0.0719624807,3.93314395 C0.255436938,2.57380917 1.17280923,0.794926623 2.33481413,0.442506496 L4.33264711,5.49386165 C3.68029348,5.76237223 3.41527482,6.48399439 4.57727972,9.40404688 L4.57727972,9.40404688 L4.57727972,9.40404688 Z M3.0483259,0.257905477 L3.84338189,0.0397406362 C4.31226106,-0.0945146504 4.82191233,0.12365019 4.98500074,0.509634139 L6.43241035,4.15130879 C6.59549875,4.53729274 6.33048009,4.95684051 5.86160092,5.09109579 L5.06654494,5.30926064 L3.0483259,0.257905477 L3.0483259,0.257905477 L3.0483259,0.257905477 Z" id="Shape"></path>
                    </g>
                </g>
            </g>
        </g>
    </g>
</svg>