<?xml version="1.0" encoding="UTF-8" standalone="no"?>
<svg width="15px" height="29px" viewBox="0 0 15 29" version="1.1" xmlns="http://www.w3.org/2000/svg" xmlns:xlink="http://www.w3.org/1999/xlink">
    <!-- Generator: Sketch 41 (35326) - http://www.bohemiancoding.com/sketch -->
    <title>Shape</title>
    <desc>Created with Sketch.</desc>
    <defs></defs>
    <g id="ServiÑes-desktop" stroke="none" stroke-width="1" fill="none" fill-rule="evenodd">
        <g id="Services_desktop" transform="translate(-986.000000, -36.000000)" fill="#00B5FF">
            <g id="header" transform="translate(1.000000, 35.000000)">
                <g id="phone">
                    <path d="M995.139379,21.1636983 L996.146782,20.8278974 C996.740892,20.6212507 997.386663,20.9570516 997.593309,21.551161 L999.375637,27.0014683 C999.582284,27.5955776 999.246483,28.2413486 998.652374,28.4479954 L997.644971,28.7837963 L995.139379,21.1636983 L995.139379,21.1636983 L995.139379,21.1636983 Z M990.799798,15.9716994 C992.40131,20.8795591 993.512037,21.4736684 994.209469,21.4736684 L996.663399,29.1195972 C994.984394,29.6620449 992.117171,27.4147617 991.083938,26.2265431 C989.275779,24.1084142 987.545112,20.7762357 986.434386,17.340734 C985.168675,13.4144462 984.807043,10.211422 985.091183,7.55084541 C985.32366,5.45854733 986.486048,2.72047824 987.958406,2.17803059 L990.489828,9.95311357 C989.663241,10.366407 989.32744,11.4771332 990.799798,15.9716994 L990.799798,15.9716994 L990.799798,15.9716994 Z M988.862485,1.89389134 L989.869888,1.55809041 C990.463997,1.35144369 991.109768,1.68724462 991.316415,2.28135395 L993.150405,7.88664633 C993.357051,8.48075567 993.021251,9.12652668 992.427141,9.3331734 L991.419738,9.66897433 L988.862485,1.89389134 L988.862485,1.89389134 L988.862485,1.89389134 Z" id="Shape"></path>
                </g>
            </g>
        </g>
    </g>
</svg>