<?xml version="1.0" encoding="UTF-8" standalone="no"?>
<svg width="136px" height="66px" viewBox="0 0 136 66" version="1.1" xmlns="http://www.w3.org/2000/svg" xmlns:xlink="http://www.w3.org/1999/xlink">
    <!-- Generator: Sketch 41 (35326) - http://www.bohemiancoding.com/sketch -->
    <title>Point_on_the_map</title>
    <desc>Created with Sketch.</desc>
    <defs>
        <linearGradient x1="50%" y1="0%" x2="50%" y2="100%" id="linearGradient-1">
            <stop stop-color="#000000" stop-opacity="0" offset="0%"></stop>
            <stop stop-color="#000000" offset="100%"></stop>
        </linearGradient>
        <filter x="-50%" y="-50%" width="200%" height="200%" filterUnits="objectBoundingBox" id="filter-2">
            <feGaussianBlur stdDeviation="2.64636988 2.64636988" in="SourceGraphic"></feGaussianBlur>
        </filter>
    </defs>
    <g id="Сontacts_desktop" stroke="none" stroke-width="1" fill="none" fill-rule="evenodd">
        <g id="Contacts_desktop" transform="translate(-654.000000, -686.000000)">
            <g id="Point_on_the_map" transform="translate(655.000000, 686.000000)">
                <path d="M67.0912634,49.862069 L118.001275,49.862069 C119.65715,49.862069 121.462271,48.5972001 122.032511,47.0369053 L129.967489,25.3251637 C130.537735,23.7648529 129.657425,22.5 128.001275,22.5 L17.9987248,22.5 C16.34285,22.5 14.5377291,23.7648689 13.967489,25.3251637 L6.032511,47.0369053 C5.46226507,48.5972161 6.34257482,49.862069 7.99872479,49.862069 L59.3245647,49.862069 C58.5295916,53.2744983 58.6580033,57.6435358 63.692326,59.2585393 C62.5994164,55.4184346 64.5815185,52.2191532 67.0912634,49.862069 Z" id="Combined-Shape" fill="url(#linearGradient-1)" opacity="0.372901119" filter="url(#filter-2)"></path>
                <path d="M66.4193027,46 L118.008972,46 C119.661809,46 121,44.6566554 121,42.9995558 L121,3.00044415 C121,1.35178054 119.660871,0 118.008972,0 L2.99102783,0 C1.33819145,0 0,1.34334461 0,3.00044415 L0,42.9995558 C0,44.6482195 1.33912877,46 2.99102783,46 L54.0739097,46 C54.4345908,48.3996331 56.2211757,56.8618051 63.692326,59.2585393 C61.7550978,52.4517924 65.0211207,47.6584514 66.4193027,46 Z" id="Combined-Shape" fill="#FFFFFF"></path>
                <g id="jaws" transform="translate(15.000000, 10.000000)" fill="#00B5FF">
                    <path d="M0,21.3068271 C0.729549705,22.5906766 1.7634425,23.5645306 3.10240648,24.2313134 C4.44209856,24.8973652 6.31548318,25.2058985 8.75168409,25.2651194 C10.4728972,25.3067933 11.8074926,25.028236 13.2636796,24.3131991 C13.4158512,18.7383971 15.5040234,14.0796904 15.5040234,14.0796904 C15.5040234,14.0796904 14.4613935,10.8941937 17.4698759,9.27110379 L17.4698759,0.383589934 L10.9090252,0.380665448 L10.9090252,15.7327563 C10.9090252,17.2198575 10.448142,17.9809551 10.058612,18.6075263 C9.66835383,19.2355597 9.05748337,19.5477486 8.2223601,19.5477486 C7.69667658,19.5477486 7.2904004,19.4439294 7.00425965,19.2319041 C6.58706206,18.9094795 4.99617772,17.8339997 4.82143528,17.3119789 L0,21.3068271" id="Fill-1"></path>
                    <path d="M18.5423576,22.262403 C18.5423576,22.262403 22.460957,22.8736207 22.7587472,22.3296662 C23.0565374,21.7857118 20.7725081,18.4803111 20.7725081,18.4803111 C20.7725081,18.4803111 24.0926145,20.6290775 24.6059205,20.247432 C25.1192264,19.8665176 24.3314292,15.9206545 24.3314292,15.9206545 C24.3314292,15.9206545 26.5339121,19.1631787 27.1309488,19.0878732 C27.7279855,19.0132988 28.6140753,15.0162571 28.6140753,15.0162571 C28.6140753,15.0162571 29.3450812,19.3137897 29.9472145,19.4987635 C30.5493478,19.6837373 33.314647,16.115864 33.314647,16.115864 C33.314647,16.115864 32.3775907,20.3454023 32.6164053,20.5325694 C32.9768116,20.8111267 36.9157976,19.02061 36.9157976,19.02061 C36.9157976,19.02061 34.4169806,22.1337257 34.5917231,22.5533894 C34.7664655,22.9737843 38.8911153,22.9423461 38.8911153,22.9423461 C38.8911153,22.9423461 37.2084912,24.4908616 35.1305123,25.3155667 C35.2186116,25.3418871 35.6052292,25.3279958 35.6052292,25.3279958 C35.6052292,25.3279958 42.6153136,25.3345759 42.5963832,25.3155667 C42.5963832,21.0823728 41.6338436,17.3295258 40.2395445,14.0994307 C40.4543321,13.74045 40.5832046,13.301777 40.5832046,12.8243546 C40.5832046,11.6128862 39.7691961,10.631721 38.7636989,10.631721 C38.6741434,10.631721 38.5889565,10.6485368 38.5023133,10.6631593 C34.6936562,4.15544614 29.6013701,0.569294814 29.6013701,0.569294814 C29.0334571,-0.0017111356 28.1109627,-0.0017111356 27.5415935,0.569294814 C27.5415935,0.569294814 22.4893526,4.20004455 18.6857921,10.6690082 C18.5853152,10.6485368 18.4848382,10.631721 18.3792647,10.631721 C17.3737675,10.631721 16.559759,11.6128862 16.559759,12.8243546 C16.559759,13.3156683 16.6973687,13.7638459 16.9238057,14.1301378 C15.5178572,17.3631574 14.5487647,21.1116177 14.5487647,25.3155667 L22.7835024,25.3155667 C22.2221423,25.1517955 21.9046935,24.9821753 21.9046935,24.9821753 C19.9082611,23.9783454 18.5423576,22.262403 18.5423576,22.262403 L18.5423576,22.262403 Z M19.2893816,12.8243546 C19.2893816,13.5510895 18.8823773,14.1411046 18.3792647,14.1411046 C17.8776083,14.1411046 17.4698759,13.5510895 17.4698759,12.8243546 C17.4698759,12.0976198 17.8776083,11.5083358 18.3792647,11.5083358 C18.8823773,11.5083358 19.2893816,12.0976198 19.2893816,12.8243546 L19.2893816,12.8243546 Z M38.7636989,11.5083358 C39.2668115,11.5083358 39.6745439,12.0976198 39.6745439,12.8243546 C39.6745439,13.5510895 39.2668115,14.1411046 38.7636989,14.1411046 C38.2620425,14.1411046 37.853582,13.5510895 37.853582,12.8243546 C37.853582,12.0976198 38.2620425,11.5083358 38.7636989,11.5083358 L38.7636989,11.5083358 Z" id="Fill-3"></path>
                    <path d="M68.6868863,0.39090115 L63.4649996,13.993418 L57.8441177,0.39090115 L52.6579075,0.39090115 L46.9329082,13.993418 L41.9360024,0.39090115 L33.7886359,0.39090115 C38.8008317,7.4820493 39.3337961,9.25940585 39.3337961,9.25940585 C42.7754942,10.4525963 41.6039917,14.0679924 41.6039917,14.0679924 C41.6039917,14.0679924 43.9280662,17.3982512 44.0802378,25.2585393 L48.6745079,25.2585393 C48.6745079,25.2585393 54.4169815,19.8906447 51.9895177,11.3613804 C60.7251837,14.1637694 61.6891795,25.2585393 61.6891795,25.2585393 L65.702431,25.2585393 L76.7468816,0.39090115 L68.6868863,0.39090115" id="Fill-7"></path>
                    <path d="M73.1683019,11.4184079 C73.869456,12.3666725 74.7468087,13.139468 75.7974476,13.734601 C76.8480866,14.329734 78.0610904,14.8663772 79.436459,15.3437996 C80.6778585,15.7481098 81.6294767,16.1553445 82.2920418,16.5640415 C82.9531507,16.9727385 83.3048199,17.5020705 83.344137,18.1527687 C83.367436,18.5124805 83.2050711,18.9094795 82.8592267,19.3437657 C82.5141104,19.7780519 81.7117513,20.0324822 80.4536057,20.1077878 C79.0884303,20.1889423 77.8084419,19.9703369 76.5699549,19.5879603 C75.099206,19.134665 74.0099781,18.5665835 72.7299897,17.8844471 L70.342571,22.641124 C71.6946407,23.1317066 73.58914,24.0989804 77.0519528,24.9068698 C78.2715094,25.1920072 79.2740942,25.2439168 80.012381,25.2636571 C80.752124,25.2833974 81.374644,25.2782795 81.8813971,25.2483036 C83.6928938,25.1408287 85.2794095,24.751872 86.6445849,24.0814335 C88.0090321,23.4124573 89.0480216,22.5022109 89.7651937,21.3536189 C90.4801815,20.2042958 90.7918056,18.8743857 90.7007939,17.3653507 C90.6185193,16.0054646 90.226805,14.8905042 89.5314757,14.0175451 C88.8346902,13.1438548 87.9005462,12.3922618 86.7304999,11.7634972 C85.5568132,11.1340016 84.0030616,10.4401672 82.0685171,9.681263 C80.9792892,9.24551454 80.2169753,8.86533132 79.7852158,8.54144446 C79.3512721,8.21828873 79.1219226,7.8176341 79.0920708,7.34094284 C79.062219,6.8313511 79.2420581,6.38902255 79.6330443,6.01541942 C80.0225743,5.64327854 80.6764023,5.42979104 81.5938001,5.3742258 C82.9946521,5.29160906 84.3270632,5.49120525 85.5895774,5.97593886 C86.8528196,6.45994134 87.3588446,7.06457888 88.4029307,7.71308372 L90.724821,3.18012996 C90.4306712,3.01197199 87.8779753,1.62210988 87.1054681,1.3413592 C86.333689,1.06133963 85.3696931,0.777664463 84.1945502,0.586841732 C83.0201353,0.393825636 81.9658559,0.285619643 80.3749716,0.466206672 C79.1918196,0.60000192 77.9999305,0.896837279 77.4145433,1.89993608 L73.1683019,11.4184079" id="Fill-9"></path>
                </g>
            </g>
        </g>
    </g>
</svg>