<?xml version="1.0" encoding="UTF-8" standalone="no"?>
<svg width="50px" height="38px" viewBox="0 0 50 38" version="1.1" xmlns="http://www.w3.org/2000/svg" xmlns:xlink="http://www.w3.org/1999/xlink">
    <!-- Generator: Sketch 41 (35326) - http://www.bohemiancoding.com/sketch -->
    <title>result_icon</title>
    <desc>Created with Sketch.</desc>
    <defs></defs>
    <g id="Contextual_advertising_desktop" stroke="none" stroke-width="1" fill="none" fill-rule="evenodd">
        <g transform="translate(-695.000000, -2179.000000)" id="Block_with_icons" fill="#00B5FF">
            <g transform="translate(260.000000, 2173.000000)">
                <g id="Group-34" transform="translate(302.000000, 6.000000)">
                    <path d="M181.163346,1.98487625 C178.79342,-0.385050309 174.660556,-0.385050309 172.292198,1.98487625 L151.627882,22.6476244 L143.707214,14.7253881 C141.33415,12.3523246 137.204424,12.3554615 134.834497,14.7253881 C132.389285,17.1706002 132.387717,21.1528924 134.834497,23.5965361 L147.192308,35.9543464 C148.378055,37.1400939 149.952778,37.7925687 151.627882,37.7925687 C153.304554,37.7925687 154.879277,37.1400939 156.063456,35.9543464 L181.161778,10.8591611 C182.347525,9.67341362 183,8.0971223 183,6.42201868 C183,4.74691507 182.347525,3.17062375 181.163346,1.98487625 Z M178.943991,8.64137413 L153.845669,33.7365594 C152.659921,34.9223069 150.595842,34.9223069 149.410095,33.7365594 L137.052284,21.3803175 C135.830462,20.1569273 135.830462,18.1665654 137.052284,16.9431751 C137.645158,16.3503013 138.432519,16.0240639 139.27164,16.0240639 C140.109192,16.0240639 140.896553,16.3503013 141.489427,16.9431751 L150.518988,25.9727364 C151.132252,26.5875685 152.123511,26.5875685 152.736775,25.9727364 L174.50528,4.20423169 C175.691027,3.01848419 177.758243,3.01848419 178.943991,4.20423169 C179.535296,4.79553699 179.863102,5.58446688 179.863102,6.42201868 C179.863102,7.25957049 179.535296,8.04850038 178.943991,8.64137413 Z" id="result_icon"></path>
                </g>
            </g>
        </g>
    </g>
</svg>