<?xml version="1.0" encoding="UTF-8" standalone="no"?>
<svg width="210px" height="121px" viewBox="0 0 210 121" version="1.1" xmlns="http://www.w3.org/2000/svg" xmlns:xlink="http://www.w3.org/1999/xlink">
    <!-- Generator: Sketch 41 (35326) - http://www.bohemiancoding.com/sketch -->
    <title>Rocket</title>
    <desc>Created with Sketch.</desc>
    <defs></defs>
    <g id="Home" stroke="none" stroke-width="1" fill="none" fill-rule="evenodd">
        <g id="JAWS" transform="translate(-43.000000, -4967.000000)">
            <g id="Rocket" transform="translate(139.618208, 5025.301493) rotate(-285.000000) translate(-139.618208, -5025.301493) translate(59.118208, 4925.801493)">
                <g id="icomoon-ignore" transform="translate(127.000000, -0.000000)"></g>
                <path d="M143.627574,12.6265425 C141.300306,12.6265425 139.470291,14.6100612 139.470291,17.1363843 C139.470291,19.6627074 141.298747,21.6462261 143.627574,21.6462261 C145.954842,21.6462261 147.784857,19.6627074 147.784857,17.1363843 C147.784857,14.6100612 145.956401,12.6265425 143.627574,12.6265425 L143.627574,12.6265425 Z M143.627574,19.8402602 C142.213755,19.8402602 141.133516,18.6684116 141.133516,17.1346933 C141.133516,15.6009751 142.213755,14.4291264 143.627574,14.4291264 C145.041393,14.4291264 146.121632,15.6009751 146.121632,17.1346933 C146.121632,18.6684116 145.041393,19.8402602 143.627574,19.8402602 L143.627574,19.8402602 Z" id="Shape" fill="#00B5FF"></path>
                <path d="M151.940582,32.0153113 L151.940582,15.4217313 C151.940582,10.3707761 148.865096,3.51723696 143.627574,-2.05346851e-12 C138.390052,3.51723696 135.314566,10.3707761 135.314566,15.5113532 L135.314566,32.1049332 L127.001559,43.2873793 L160.255148,43.2873793 L151.94214,32.0136203 L151.940582,32.0153113 Z M135.313008,41.4847954 L130.491681,41.4847954 L135.313008,34.9018129 L135.313008,41.4847954 L135.313008,41.4847954 Z M150.277357,41.4847954 L136.976233,41.4847954 L136.976233,15.5113532 C136.976233,11.4530029 139.303501,5.59037759 143.627574,2.16445352 C147.950089,5.59206857 150.278915,11.363381 150.278915,15.5113532 L150.278915,41.4847954 L150.277357,41.4847954 Z M151.940582,34.9018129 L156.761908,41.4847954 L151.940582,41.4847954 L151.940582,34.9018129 L151.940582,34.9018129 Z" id="Shape" fill="#00B5FF"></path>
                <polygon id="Shape" fill="#00B5FF" points="142.795182 45.0933452 144.014096 45.0933452 144.014096 54.1113379 142.795182 54.1113379"></polygon>
                <polygon id="Shape" fill="#00B5FF" points="146.952465 45.0933452 148.17138 45.0933452 148.17138 50.504479 146.952465 50.504479"></polygon>
                <polygon id="Shape" fill="#00B5FF" points="138.639458 45.0933452 139.858372 45.0933452 139.858372 50.504479 138.639458 50.504479 138.639458 45.0933452"></polygon>
                <rect id="Rectangle-10-Copy" fill="#00B5FF" transform="translate(19.671412, 182.192282) rotate(15.000000) translate(-19.671412, -182.192282) " x="-0.32858795" y="181.692282" width="40" height="0.952380952"></rect>
                <path d="M24.0890565,76.4358214 C16.0120065,122.243048 18.8545964,182.731374 161.167211,170.67856" id="Path-2" stroke="#02B5FE" transform="translate(91.352874, 124.335253) rotate(-85.000000) translate(-91.352874, -124.335253) "></path>
            </g>
        </g>
    </g>
</svg>