<?xml version="1.0" encoding="UTF-8"?>
<svg width="53px" height="43px" viewBox="0 0 53 43" version="1.1" xmlns="http://www.w3.org/2000/svg" xmlns:xlink="http://www.w3.org/1999/xlink">
    <!-- Generator: Sketch 41.2 (35397) - http://www.bohemiancoding.com/sketch -->
    <title>rocket</title>
    <desc>Created with Sketch.</desc>
    <defs></defs>
    <g id="Index-+-mobile" stroke="none" stroke-width="1" fill="none" fill-rule="evenodd">
        <g id="Desktop-HD" transform="translate(-1290.000000, -4959.000000)">
            <g id="process" transform="translate(-5.000000, 4600.000000)">
                <g id="06" transform="translate(937.000000, 342.000000)">
                    <g id="rocket" transform="translate(384.012815, 34.112476) rotate(-13.000000) translate(-384.012815, -34.112476) translate(350.012815, 7.112476)">
                        <g transform="translate(34.184109, 27.134737) rotate(-285.000000) translate(-34.184109, -27.134737) translate(14.684109, -2.365263)">
                            <g id="icomoon-ignore" transform="translate(-0.000000, -0.000000)"></g>
                            <path d="M19.3867251,13.6086075 C16.6732742,13.6086075 14.5395894,15.7464 14.5395894,18.469215 C14.5395894,21.19203 16.6714567,23.3298225 19.3867251,23.3298225 C22.100176,23.3298225 24.2338607,21.19203 24.2338607,18.469215 C24.2338607,15.7464 22.1019934,13.6086075 19.3867251,13.6086075 L19.3867251,13.6086075 Z M19.3867251,21.3833925 C17.7382991,21.3833925 16.4788072,20.1204 16.4788072,18.4673925 C16.4788072,16.814385 17.7382991,15.5513925 19.3867251,15.5513925 C21.035151,15.5513925 22.294643,16.814385 22.294643,18.4673925 C22.294643,20.1204 21.035151,21.3833925 19.3867251,21.3833925 L19.3867251,21.3833925 Z" id="Shape" fill="#00B5FF"></path>
                            <path d="M29.0791789,34.5053925 L29.0791789,16.6212 C29.0791789,11.1773925 25.4933526,3.7908 19.3867251,2.84217094e-14 C13.2800975,3.7908 9.69427126,11.1773925 9.69427126,16.7177925 L9.69427126,34.601985 L0.00181744868,46.6541775 L38.7734501,46.6541775 L29.0809963,34.50357 L29.0791789,34.5053925 Z M9.69245381,44.7113925 L4.07108504,44.7113925 L9.69245381,37.6164 L9.69245381,44.7113925 L9.69245381,44.7113925 Z M27.1399611,44.7113925 L11.6316716,44.7113925 L11.6316716,16.7177925 C11.6316716,12.3437925 14.3451224,6.025185 19.3867251,2.3328 C24.4265103,6.0270075 27.1417786,12.2472 27.1417786,16.7177925 L27.1417786,44.7113925 L27.1399611,44.7113925 Z M29.0791789,37.6164 L34.7005477,44.7113925 L29.0791789,44.7113925 L29.0791789,37.6164 L29.0791789,37.6164 Z" id="Shape" fill="#00B5FF"></path>
                            <polygon id="Shape" fill="#00B5FF" points="18.4162075 48.6006075 20.3554252 48.6006075 20.3554252 58.32 18.4162075 58.32"></polygon>
                            <polygon id="Shape" fill="#00B5FF" points="23.2633431 48.6006075 25.2025609 48.6006075 25.2025609 54.4326075 23.2633431 54.4326075"></polygon>
                            <polygon id="Shape" fill="#00B5FF" points="13.5708893 48.6006075 15.510107 48.6006075 15.510107 54.4326075 13.5708893 54.4326075 13.5708893 48.6006075"></polygon>
                        </g>
                    </g>
                </g>
            </g>
        </g>
    </g>
</svg>