<?xml version="1.0" encoding="UTF-8" standalone="no"?>
<svg width="48px" height="47px" viewBox="0 0 48 47" version="1.1" xmlns="http://www.w3.org/2000/svg" xmlns:xlink="http://www.w3.org/1999/xlink">
    <!-- Generator: Sketch 41 (35326) - http://www.bohemiancoding.com/sketch -->
    <title>UI_design</title>
    <desc>Created with Sketch.</desc>
    <defs></defs>
    <g id="ServiÑes-desktop" stroke="none" stroke-width="1" fill="none" fill-rule="evenodd">
        <g id="Services_desktop" transform="translate(-841.000000, -337.000000)">
            <g id="header" transform="translate(1.000000, 35.000000)">
                <g id="4" transform="translate(840.000000, 302.000000)">
                    <g id="UI_design">
                        <rect id="Rectangle-2" x="0" y="0" width="48" height="48"></rect>
                        <g id="Shape" fill="#00B5FF">
                            <path d="M42.0323769,0 L6.04080514,0 C2.7587152,0 0.0988779443,2.66055675 0.0988779443,5.94285225 L0.0988779443,33.3838458 C0.0988779443,36.6661413 2.7587152,39.3263897 6.04090792,39.3263897 L22.5875118,39.3263897 L22.5875118,43.3356745 L13.0719315,43.3356745 C11.8238287,43.3356745 10.8129507,44.346758 10.8129507,45.5953747 C10.8129507,46.7352976 11.8239315,46.7460728 13.0719315,46.7460728 L34.999606,46.7460728 C36.2484283,46.7460728 37.259409,46.7352976 37.259409,45.4868865 C37.259409,44.346758 36.2484283,43.3356745 34.999606,43.3356745 L26.4826895,43.3356745 L26.4826895,39.3263897 L42.0323769,39.3263897 C45.3146724,39.3263897 47.974818,36.6661413 47.974818,33.3838458 L47.974818,5.94285225 C47.9749208,2.66055675 45.3146724,0 42.0323769,0 Z M45.4348683,33.9005349 C45.4348683,35.3226726 44.2831066,36.4745514 42.8603834,36.4745514 L5.21302104,36.4745514 C3.79088337,36.4745514 2.63923875,35.3225555 2.63923875,33.9005349 L2.63923875,5.39159354 C2.63923875,3.96933877 3.79100047,2.81757705 5.21302104,2.81757705 L42.8602663,2.81757705 C44.2829895,2.81757705 45.4347512,3.96933877 45.4347512,5.39159354 L45.4347512,29.6042339 L45.4348683,33.9005349 Z"></path>
                            <path d="M39.8075203,8.40476231 L28.3878373,8.40476231 C27.9209936,8.40476231 27.5435717,8.78208137 27.5435717,9.24882227 L27.5435717,18.2211221 C27.5435717,18.6879657 27.9209936,19.0656959 28.3878373,19.0656959 L39.8075203,19.0656959 C40.274364,19.0656959 40.6522998,18.6879657 40.6522998,18.2211221 L40.6522998,9.24871949 C40.6522998,8.78197859 40.274364,8.40476231 39.8075203,8.40476231 Z M38.9627409,17.3769593 L29.2318972,17.3769593 L29.2318972,10.0932934 L38.9627409,10.0932934 L38.9627409,17.3769593 Z"></path>
                            <path d="M39.8075203,20.2265353 L28.3878373,20.2265353 C27.9209936,20.2265353 27.5435717,20.6044711 27.5435717,21.0713148 L27.5435717,30.0435118 C27.5435717,30.5101499 27.9209936,30.8878801 28.3878373,30.8878801 L39.8075203,30.8878801 C40.274364,30.8878801 40.6522998,30.5101499 40.6522998,30.0435118 L40.6522998,21.0713148 C40.6522998,20.6044711 40.274364,20.2265353 39.8075203,20.2265353 Z M38.9627409,29.1989379 L29.2318972,29.1989379 L29.2318972,21.9156831 L38.9627409,21.9156831 L38.9627409,29.1989379 Z"></path>
                            <path d="M9.9271606,13.3128908 L15.6267238,13.3128908 C16.3264754,13.3128908 16.8933276,12.7455246 16.8933276,12.0459786 C16.8933276,11.3468437 16.3263726,10.7794775 15.6267238,10.7794775 L9.9271606,10.7794775 C9.22751178,10.7794775 8.66004283,11.3469465 8.66004283,12.0459786 C8.66004283,12.7456274 9.22751178,13.3128908 9.9271606,13.3128908 Z"></path>
                            <path d="M9.9271606,18.3793062 L17.3162827,18.3793062 C18.0149036,18.3793062 18.5824754,17.8120428 18.5824754,17.1130107 C18.5824754,16.4134647 18.0149036,15.8460985 17.3162827,15.8460985 L9.9271606,15.8460985 C9.22751178,15.8460985 8.66004283,16.4134647 8.66004283,17.1130107 C8.66004283,17.8121456 9.22751178,18.3793062 9.9271606,18.3793062 Z"></path>
                            <path d="M22.3826981,20.9130278 L9.9271606,20.9130278 C9.22751178,20.9130278 8.66004283,21.4802912 8.66004283,22.1797345 C8.66004283,22.8787666 9.22751178,23.4461328 9.9271606,23.4461328 L22.3826981,23.4461328 C23.0816274,23.4461328 23.6489936,22.8786638 23.6489936,22.1797345 C23.6489936,21.4801884 23.0815246,20.9130278 22.3826981,20.9130278 Z"></path>
                            <path d="M22.3826981,25.9794433 L9.9271606,25.9794433 C9.22751178,25.9794433 8.66004283,26.5469122 8.66004283,27.2463555 C8.66004283,27.9454904 9.22751178,28.512651 9.9271606,28.512651 L22.3826981,28.512651 C23.0816274,28.512651 23.6489936,27.9453876 23.6489936,27.2463555 C23.6489936,26.5469122 23.0815246,25.9794433 22.3826981,25.9794433 Z"></path>
                        </g>
                    </g>
                </g>
            </g>
        </g>
    </g>
</svg>