<?xml version="1.0" encoding="UTF-8" standalone="no"?>
<svg width="48px" height="36px" viewBox="0 0 48 36" version="1.1" xmlns="http://www.w3.org/2000/svg" xmlns:xlink="http://www.w3.org/1999/xlink">
    <!-- Generator: Sketch 41 (35326) - http://www.bohemiancoding.com/sketch -->
    <title>UX_design_ icon</title>
    <desc>Created with Sketch.</desc>
    <defs></defs>
    <g id="ServiÑes-desktop" stroke="none" stroke-width="1" fill="none" fill-rule="evenodd">
        <g id="Services_desktop" transform="translate(-838.000000, -432.000000)">
            <g id="header" transform="translate(1.000000, 35.000000)">
                <g id="5" transform="translate(837.000000, 391.000000)">
                    <g id="UX_design_-icon">
                        <g id="Group" transform="translate(0.000000, 6.000000)" fill="#00B5FF">
                            <path d="M44.6675951,26.2596923 L44.6675951,4.49237247 C44.6675951,2.08129555 42.7060081,0.119902834 40.2951255,0.119902834 L7.64929555,0.119902834 C5.23841296,0.119902834 3.27682591,2.08129555 3.27682591,4.49237247 L3.27682591,26.2598866 C1.4594332,26.3257652 0,27.8209555 0,29.6542834 L0,31.9862672 C0,33.8613765 1.5257004,35.3870769 3.40080972,35.3870769 L44.543417,35.3870769 C46.4185263,35.3870769 47.9442267,33.8613765 47.9442267,31.9862672 L47.9442267,29.6542834 C47.9442267,27.8211498 46.4849879,26.3257652 44.6675951,26.2596923 Z M7.64929555,3.03488259 L40.2949312,3.03488259 C41.0986883,3.03488259 41.7524211,3.68861538 41.7524211,4.49237247 L41.7524211,26.253668 L6.19180567,26.253668 L6.19180567,4.49237247 C6.19180567,3.68861538 6.84573279,3.03488259 7.64929555,3.03488259 Z M45.029247,31.9862672 C45.029247,32.249587 44.8067368,32.4720972 44.543417,32.4720972 L3.40080972,32.4720972 C3.13748988,32.4720972 2.91497976,32.249587 2.91497976,31.9862672 L2.91497976,29.6542834 C2.91497976,29.3909636 3.13748988,29.1684534 3.40080972,29.1684534 L44.543417,29.1684534 C44.8067368,29.1684534 45.029247,29.3909636 45.029247,29.6542834 L45.029247,31.9862672 Z" id="Shape"></path>
                            <polygon id="Shape" points="32.1762582 15.3758247 24.8888889 12.4444444 27.8033274 19.7725947 28.5138519 17.5561815 31.451655 20.5093459 32.9084998 19.0441064 29.9714456 16.0904914"></polygon>
                        </g>
                        <rect id="Rectangle-2" x="0" y="0" width="48" height="48"></rect>
                    </g>
                </g>
            </g>
        </g>
    </g>
</svg>